<svg xmlns="http://www.w3.org/2000/svg" xmlns:xlink="http://www.w3.org/1999/xlink" width="200" height="200" viewBox="0 0 200 200">
  <defs>
    <clipPath id="clip-path">
      <rect id="Rectangle_2557" data-name="Rectangle 2557" width="21.74" height="27.811" fill="none"/>
    </clipPath>
    <clipPath id="clip-path-2">
      <rect id="Rectangle_2595" data-name="Rectangle 2595" width="68.68" height="29.549" fill="none"/>
    </clipPath>
    <clipPath id="clip-fb-img">
      <rect width="200" height="200"/>
    </clipPath>
  </defs>
  <g id="fb-img" clip-path="url(#clip-fb-img)">
    <rect width="200" height="200" fill="#fff"/>
    <g id="Group_3807" data-name="Group 3807" transform="translate(27 9)">
      <g id="Group_3770" data-name="Group 3770" transform="translate(90.046 0)">
        <path id="Path_7295" data-name="Path 7295" d="M301.782,150.824a1.109,1.109,0,0,1,0-2.219,28.137,28.137,0,0,0,4.457-.445c2.818-.525,4.749-1.451,5.437-2.608a1.109,1.109,0,1,1,1.907,1.134c-1.052,1.769-3.4,3-6.971,3.661a29.888,29.888,0,0,1-4.824.476Z" transform="translate(-285.142 -136.231)" fill="#d3008d"/>
        <path id="Path_7296" data-name="Path 7296" d="M456.294,217.74a1.116,1.116,0,0,1-.2-.018c-4.738-.87-6.757-5.969-6.841-6.185a1.109,1.109,0,0,1,2.069-.8,10.161,10.161,0,0,0,1.317,2.233,6.38,6.38,0,0,0,3.855,2.572,1.109,1.109,0,0,1-.2,2.2" transform="translate(-422.586 -196.405)" fill="#d3008d"/>
        <path id="Path_8768" data-name="Path 8768" d="M507.676,62.305s-2.723-3.222.279-7.255a9.816,9.816,0,0,1-2.454-2.81c-2.095-4.276-1.262-8.548,2.94-9.307,7.889-1.424,15.094,4.688,15.1,15.019.012,11.264-6.912,17.75-14.251,16.043-3.885-.9-5.01-5.391-4.493-8.252a4.155,4.155,0,0,1,2.875-3.439" transform="translate(-473.692 -41.568)" fill="#ff2c9c"/>
        <path id="Path_10703" data-name="Path 10703" d="M359.389,62.04a1.622,1.622,0,0,1-1.62-1.569c0-.1-.08-2.542.077-5.769A44.562,44.562,0,0,1,359.4,44.1c.7-2.258.762-5.535.188-9.48a45.927,45.927,0,0,0-1.119-5.417,1.622,1.622,0,0,1,3.118-.9,48.646,48.646,0,0,1,1.211,5.845c.652,4.481.552,8.15-.3,10.9-1.774,5.746-1.492,15.211-1.489,15.306a1.622,1.622,0,0,1-1.569,1.673h-.053" transform="translate(-337.966 -27.137)" fill="#5793ce"/>
        <path id="Path_10704" data-name="Path 10704" d="M428.253,61.889a1.493,1.493,0,0,1-1.488-1.381,60.8,60.8,0,0,1,.625-13.37,49,49,0,0,0,.564-11.375,47.468,47.468,0,0,0-.557-5.132,1.493,1.493,0,0,1,2.938-.54,49.331,49.331,0,0,1,.6,5.442,53.053,53.053,0,0,1-.6,12.128,58.817,58.817,0,0,0-.587,12.623,1.494,1.494,0,0,1-1.377,1.6q-.057,0-.113,0" transform="translate(-401.73 -28.738)" fill="#d3008d"/>
        <path id="Path_10705" data-name="Path 10705" d="M281.785,179.954h-.021a1.152,1.152,0,0,1,.011-2.3h.008a10.844,10.844,0,0,0,3.342-.626,5.914,5.914,0,0,0,4.018-4.086,1.152,1.152,0,0,1,2.226.594,8.215,8.215,0,0,1-5.531,5.684,13.1,13.1,0,0,1-4.053.738" transform="translate(-266.585 -161.287)" fill="#5793ce"/>
        <path id="Path_10706" data-name="Path 10706" d="M392.277,306.025h-.041a12.667,12.667,0,0,1-5.134-1.264,13.434,13.434,0,0,1-3.5-2.488,13.875,13.875,0,0,1-2.667-3.56l2.08-.992v0a11.815,11.815,0,0,0,2.258,2.964,11.1,11.1,0,0,0,2.888,2.029,10.383,10.383,0,0,0,4.162,1.011,1.152,1.152,0,0,1-.04,2.3" transform="translate(-359.422 -277.565)" fill="#5793ce"/>
        <path id="Subtraction_1" data-name="Subtraction 1" d="M1.815,31.538h0c-.3,0-.6-.014-.9-.041A10.841,10.841,0,0,0,8.7,26.751a19.612,19.612,0,0,0,3.255-11.527C11.943,6.795,7.028.548,0,.033.3.011.605,0,.9,0A11.939,11.939,0,0,1,9.925,4.112a14.452,14.452,0,0,1,2.785,4.8,18.919,18.919,0,0,1,1.033,6.317,23,23,0,0,1-.958,6.795,16.085,16.085,0,0,1-2.6,5.136A10.54,10.54,0,0,1,1.815,31.538Z" transform="translate(36.112 1.161)" fill="#d3008d" stroke="rgba(0,0,0,0)" stroke-miterlimit="10" stroke-width="1"/>
        <path id="Path_7297" data-name="Path 7297" d="M108.018,62.305s2.723-3.222-.279-7.255a9.816,9.816,0,0,0,2.454-2.81c2.095-4.276,1.262-8.548-2.94-9.307-7.889-1.424-15.094,4.688-15.1,15.019C92.137,69.217,99.061,75.7,106.4,74c3.885-.9,5.01-5.391,4.494-8.252a4.156,4.156,0,0,0-2.875-3.439" transform="translate(-92.149 -41.568)" fill="#ff2c9c"/>
        <path id="Subtraction_2" data-name="Subtraction 2" d="M.593,31.537h0c-.2,0-.4-.006-.592-.018a10.39,10.39,0,0,0,1.729-.253c3.917-.911,5-5.462,4.494-8.252a1.916,1.916,0,0,0-2.142-1.666,6.813,6.813,0,0,0-2.352.522l1.619-2.3a2.776,2.776,0,0,0,.743-1.495c.168-.912.043-2.436-1.508-4.519a27.882,27.882,0,0,0,2.94-4.051c1.258-2.567,1.456-5.072.544-6.875A4.623,4.623,0,0,0,2.582.2,12.885,12.885,0,0,0,.917.014c.2-.01.4-.014.591-.014A12.762,12.762,0,0,1,3.769.2,4.623,4.623,0,0,1,7.254,2.637,5.958,5.958,0,0,1,7.789,5.8a10.517,10.517,0,0,1-1.08,3.713,9.886,9.886,0,0,1-2.454,2.81,6.972,6.972,0,0,1,1.31,2.835,5.508,5.508,0,0,1-.045,2.3,5.51,5.51,0,0,1-.986,2.115h0a3.731,3.731,0,0,1,1.239.636,4.1,4.1,0,0,1,.964,1.047,4.809,4.809,0,0,1,.669,1.756,8.694,8.694,0,0,1-.6,4.86,5.641,5.641,0,0,1-3.9,3.392A10.273,10.273,0,0,1,.593,31.537Z" transform="translate(11.335 1.161)" fill="#d3008d" stroke="rgba(0,0,0,0)" stroke-miterlimit="10" stroke-width="1"/>
      </g>
      <g id="Group_3786" data-name="Group 3786" transform="translate(0 6.695)">
        <g id="Group_3989" data-name="Group 3989" transform="translate(0 0)">
          <path id="Path_10723" data-name="Path 10723" d="M114.793,176.044,65.565,147.623c-1.393-.8-1.218-2.209.39-3.137l33.521-19.347a6.039,6.039,0,0,1,5.433-.225l49.228,28.422c1.393.8,1.218,2.209-.39,3.137l-33.52,19.346a6.038,6.038,0,0,1-5.433.225" transform="translate(-37.191 -71.576)" fill="#666" opacity="0.16"/>
          <path id="Path_10724" data-name="Path 10724" d="M222.214,35.052,172.987,6.63a1.986,1.986,0,0,0-1.668-.2l0-.005-.089.034-.022.008-1.779.68,1.6.782c-.007.03-.017.057-.023.087l-8.018,36.5a4.608,4.608,0,0,0,1.795,4.763l48.044,27.738-.171,2.036,1.944-.753a2.732,2.732,0,0,0,1.392-1.98l8.018-36.5a4.609,4.609,0,0,0-1.795-4.763" transform="translate(-93.739 -3.64)" fill="#173d7a"/>
          <path id="Path_10725" data-name="Path 10725" d="M226.061,35.052,176.833,6.63a1.986,1.986,0,0,0-1.668-.2l0-.005-.089.034-.022.008-1.779.68,1.6.782c-.007.03-.017.057-.023.087l-5.285,24.055,24.086,18.766,33.963-13.82a3.819,3.819,0,0,0-1.555-1.962" transform="translate(-97.586 -3.64)" fill="#396caa"/>
          <path id="Path_10726" data-name="Path 10726" d="M293.258,79.963l3.747-1.6a4.7,4.7,0,0,0-1.518-3.752l-5.932,2.5Z" transform="translate(-166.639 -42.941)" fill="#274f89"/>
          <path id="Path_10727" data-name="Path 10727" d="M206.788,79.786,157.56,51.364a4.61,4.61,0,0,1-1.795-4.763l8.018-36.5c.4-1.827,1.855-2.656,3.248-1.852l49.228,28.422a4.608,4.608,0,0,1,1.795,4.763l-8.018,36.5c-.4,1.827-1.856,2.656-3.248,1.852" transform="translate(-89.583 -4.571)" fill="#d4ecff"/>
          <path id="Path_10728" data-name="Path 10728" d="M208.465,80.7l-46.3-26.717a4.219,4.219,0,0,1-1.643-4.359l7.337-33.4c.367-1.671,1.7-2.43,2.972-1.694l46.3,26.717a4.218,4.218,0,0,1,1.643,4.359l-7.338,33.4c-.367,1.671-1.7,2.43-2.972,1.694" transform="translate(-92.327 -8.2)" fill="#fff"/>
          <path id="Path_10729" data-name="Path 10729" d="M208.465,80.7l-46.3-26.717a4.219,4.219,0,0,1-1.643-4.359l7.337-33.4c.367-1.671,1.7-2.43,2.972-1.694l46.3,26.717a4.218,4.218,0,0,1,1.643,4.359l-7.338,33.4c-.367,1.671-1.7,2.43-2.972,1.694" transform="translate(-92.327 -8.2)" fill="#173d7a"/>
          <path id="Path_10730" data-name="Path 10730" d="M155.079,144.16l-6.729-.888-43.438-25.079a6.037,6.037,0,0,0-5.433.225L68.7,136.182l-4.069-.537v2.308h0a1.585,1.585,0,0,0,.934,1.426L114.8,167.8a6.038,6.038,0,0,0,5.433-.225L153.75,148.23a2.194,2.194,0,0,0,1.329-1.827Z" transform="translate(-37.195 -67.707)" fill="#173d7a"/>
          <path id="Path_10731" data-name="Path 10731" d="M122.441,140.354l-3.086-1.782H85.425L68.7,148.223l-4.069-.537v2.309h0a1.585,1.585,0,0,0,.934,1.426L114.8,179.842a5.1,5.1,0,0,0,2.8.526Z" transform="translate(-37.195 -79.748)" fill="#396caa"/>
          <path id="Path_10732" data-name="Path 10732" d="M66.435,160.279l-1.806-.239v2.309h0a1.585,1.585,0,0,0,.934,1.426l.868.5Z" transform="translate(-37.194 -92.103)" fill="#5793ce"/>
          <path id="Path_10733" data-name="Path 10733" d="M183.974,228.966a6.305,6.305,0,0,0,4.616-.287v-5.15h-4.616Z" transform="translate(-105.877 -128.641)" fill="#274f89"/>
          <path id="Path_10734" data-name="Path 10734" d="M114.793,160.307,65.565,131.886c-1.393-.8-1.218-2.209.39-3.137L99.476,109.4a6.039,6.039,0,0,1,5.433-.225L154.136,137.6c1.393.8,1.218,2.208-.39,3.137l-33.52,19.346a6.039,6.039,0,0,1-5.433.225" transform="translate(-37.191 -62.519)" fill="#d4ecff"/>
          <path id="Path_10735" data-name="Path 10735" d="M153.751,168.988l-33.521,19.347a6.038,6.038,0,0,1-5.433.225L65.57,160.138a1.832,1.832,0,0,1-.866-.947,1.489,1.489,0,0,0,.866,1.79L114.8,189.4a6.038,6.038,0,0,0,5.433-.225l33.521-19.347c1.081-.624,1.511-1.463,1.256-2.19a2.616,2.616,0,0,1-1.256,1.346" transform="translate(-37.196 -91.614)" fill="#fff"/>
          <path id="Path_10736" data-name="Path 10736" d="M112.979,136.761l-2.227-1.286c-.179-.1-.156-.284.05-.4l2.629-1.518a.776.776,0,0,1,.7-.029l2.227,1.286c.179.1.156.284-.05.4l-2.629,1.518a.776.776,0,0,1-.7.029" transform="translate(-63.668 -76.804)" fill="#b9dff9"/>
          <path id="Path_10737" data-name="Path 10737" d="M121.082,141.44l-2.227-1.286c-.179-.1-.156-.284.05-.4l2.629-1.518a.776.776,0,0,1,.7-.029l2.227,1.286c.179.1.156.284-.05.4l-2.629,1.518a.776.776,0,0,1-.7.029" transform="translate(-68.331 -79.497)" fill="#b9dff9"/>
          <path id="Path_10738" data-name="Path 10738" d="M129.185,146.118l-2.227-1.286c-.179-.1-.156-.284.05-.4l2.629-1.518a.776.776,0,0,1,.7-.029l2.227,1.286c.179.1.156.284-.05.4l-2.629,1.518a.776.776,0,0,1-.7.029" transform="translate(-72.994 -82.189)" fill="#b9dff9"/>
          <path id="Path_10739" data-name="Path 10739" d="M140.392,142.584l-2.227-1.286c-.179-.1-.156-.284.05-.4l2.207-1.274a.776.776,0,0,1,.7-.029l2.227,1.286c.179.1.156.284-.05.4l-2.207,1.274a.776.776,0,0,1-.7.029" transform="translate(-79.444 -80.295)" fill="#b9dff9"/>
          <path id="Path_10740" data-name="Path 10740" d="M148.495,147.263l-2.227-1.286c-.179-.1-.156-.284.05-.4l2.207-1.274a.776.776,0,0,1,.7-.029l2.227,1.286c.179.1.156.284-.05.4l-2.207,1.274a.776.776,0,0,1-.7.029" transform="translate(-84.107 -82.988)" fill="#b9dff9"/>
          <path id="Path_10741" data-name="Path 10741" d="M156.6,151.941l-2.227-1.286c-.179-.1-.157-.284.05-.4l2.207-1.274a.775.775,0,0,1,.7-.029l2.227,1.286c.179.1.157.284-.05.4l-2.207,1.274a.776.776,0,0,1-.7.029" transform="translate(-88.77 -85.68)" fill="#b9dff9"/>
          <path id="Path_10742" data-name="Path 10742" d="M164.7,156.619l-2.227-1.286c-.179-.1-.157-.284.05-.4l2.207-1.274a.776.776,0,0,1,.7-.029l2.227,1.286c.179.1.157.284-.05.4L165.4,156.59a.776.776,0,0,1-.7.029" transform="translate(-93.434 -88.372)" fill="#b9dff9"/>
          <path id="Path_10743" data-name="Path 10743" d="M172.8,161.3l-2.227-1.286c-.179-.1-.156-.284.05-.4l2.207-1.274a.776.776,0,0,1,.7-.029l2.227,1.286c.179.1.156.284-.05.4l-2.207,1.274a.776.776,0,0,1-.7.029" transform="translate(-98.097 -91.065)" fill="#b9dff9"/>
          <path id="Path_10744" data-name="Path 10744" d="M180.907,165.976l-2.227-1.286c-.179-.1-.157-.284.05-.4l2.207-1.274a.776.776,0,0,1,.7-.029l2.227,1.286c.179.1.156.284-.05.4l-2.207,1.274a.776.776,0,0,1-.7.029" transform="translate(-102.76 -93.757)" fill="#b9dff9"/>
          <path id="Path_10745" data-name="Path 10745" d="M189.01,170.654l-2.227-1.286c-.179-.1-.157-.284.05-.4l2.207-1.274a.776.776,0,0,1,.7-.029l2.227,1.286c.179.1.157.284-.05.4l-2.207,1.274a.776.776,0,0,1-.7.029" transform="translate(-107.423 -96.45)" fill="#b9dff9"/>
          <path id="Path_10746" data-name="Path 10746" d="M197.113,175.332l-2.227-1.286c-.179-.1-.156-.284.05-.4l2.207-1.274a.776.776,0,0,1,.7-.029l2.227,1.286c.179.1.157.284-.05.4l-2.207,1.274a.776.776,0,0,1-.7.029" transform="translate(-112.087 -99.142)" fill="#b9dff9"/>
          <path id="Path_10747" data-name="Path 10747" d="M205.216,180.01l-2.227-1.286c-.179-.1-.156-.284.05-.4l2.207-1.274a.776.776,0,0,1,.7-.029l2.227,1.286c.179.1.156.284-.05.4l-2.207,1.274a.776.776,0,0,1-.7.029" transform="translate(-116.75 -101.834)" fill="#b9dff9"/>
          <path id="Path_10748" data-name="Path 10748" d="M213.319,184.689l-2.227-1.286c-.179-.1-.157-.284.05-.4l2.207-1.274a.776.776,0,0,1,.7-.029l2.227,1.286c.179.1.156.284-.05.4l-2.207,1.274a.776.776,0,0,1-.7.029" transform="translate(-121.413 -104.527)" fill="#b9dff9"/>
          <path id="Path_10749" data-name="Path 10749" d="M152.331,140.369l-2.227-1.286c-.179-.1-.156-.284.05-.4l2.207-1.274a.776.776,0,0,1,.7-.029l2.227,1.286c.179.1.157.284-.05.4l-2.207,1.274a.776.776,0,0,1-.7.029" transform="translate(-86.315 -79.021)" fill="#b9dff9"/>
          <path id="Path_10750" data-name="Path 10750" d="M144.107,135.621l-2.227-1.286c-.179-.1-.156-.284.05-.4l2.207-1.274a.776.776,0,0,1,.7-.029l2.227,1.286c.179.1.156.284-.05.4l-2.207,1.274a.776.776,0,0,1-.7.029" transform="translate(-81.582 -76.288)" fill="#b9dff9"/>
          <path id="Path_10751" data-name="Path 10751" d="M132.386,128.855l-4.8-2.77c-.179-.1-.156-.284.05-.4l2.207-1.274a.776.776,0,0,1,.7-.029l4.8,2.769c.179.1.156.284-.051.4l-2.207,1.274a.776.776,0,0,1-.7.029" transform="translate(-73.358 -71.54)" fill="#b9dff9"/>
          <path id="Path_10752" data-name="Path 10752" d="M139.37,123.779l-3.893-2.248c-.179-.1-.156-.284.05-.4l2.207-1.274a.776.776,0,0,1,.7-.029l3.893,2.248c.179.1.156.284-.05.4l-2.207,1.274a.776.776,0,0,1-.7.029" transform="translate(-77.897 -68.919)" fill="#b9dff9"/>
          <path id="Path_10753" data-name="Path 10753" d="M160.434,145.048l-2.227-1.286c-.179-.1-.156-.284.05-.4l2.207-1.274a.776.776,0,0,1,.7-.029l2.227,1.286c.179.1.156.284-.05.4l-2.207,1.274a.776.776,0,0,1-.7.029" transform="translate(-90.978 -81.713)" fill="#b9dff9"/>
          <path id="Path_10754" data-name="Path 10754" d="M168.537,149.726l-2.227-1.286c-.179-.1-.156-.284.05-.4l2.207-1.274a.776.776,0,0,1,.7-.029l2.227,1.286c.179.1.156.284-.05.4l-2.207,1.274a.776.776,0,0,1-.7.029" transform="translate(-95.642 -84.406)" fill="#b9dff9"/>
          <path id="Path_10755" data-name="Path 10755" d="M176.64,154.4l-2.227-1.286c-.179-.1-.156-.284.05-.4l2.207-1.274a.776.776,0,0,1,.7-.029l2.227,1.286c.179.1.157.284-.05.4l-2.207,1.274a.776.776,0,0,1-.7.029" transform="translate(-100.305 -87.098)" fill="#b9dff9"/>
          <path id="Path_10756" data-name="Path 10756" d="M184.743,159.083l-2.227-1.286c-.179-.1-.156-.284.05-.4l2.207-1.274a.776.776,0,0,1,.7-.029l2.227,1.286c.179.1.156.284-.051.4l-2.207,1.274a.776.776,0,0,1-.7.029" transform="translate(-104.968 -89.79)" fill="#b9dff9"/>
          <path id="Path_10757" data-name="Path 10757" d="M192.846,163.761l-2.227-1.286c-.179-.1-.156-.284.05-.4l2.207-1.274a.776.776,0,0,1,.7-.029l2.227,1.286c.179.1.156.284-.05.4l-2.207,1.274a.776.776,0,0,1-.7.029" transform="translate(-109.631 -92.483)" fill="#b9dff9"/>
          <path id="Path_10758" data-name="Path 10758" d="M200.949,168.439l-2.227-1.286c-.179-.1-.156-.284.05-.4l2.207-1.274a.776.776,0,0,1,.7-.029l2.227,1.286c.179.1.156.284-.05.4l-2.207,1.274a.776.776,0,0,1-.7.029" transform="translate(-114.295 -95.175)" fill="#b9dff9"/>
          <path id="Path_10759" data-name="Path 10759" d="M209.052,173.117l-2.227-1.286c-.179-.1-.156-.284.05-.4l2.207-1.274a.776.776,0,0,1,.7-.029l2.227,1.286c.179.1.156.284-.051.4l-2.207,1.274a.776.776,0,0,1-.7.029" transform="translate(-118.958 -97.867)" fill="#b9dff9"/>
          <path id="Path_10760" data-name="Path 10760" d="M217.155,177.8l-2.227-1.286c-.179-.1-.157-.284.05-.4l2.207-1.274a.776.776,0,0,1,.7-.029l2.227,1.286c.179.1.157.284-.05.4l-2.207,1.274a.776.776,0,0,1-.7.029" transform="translate(-123.621 -100.56)" fill="#b9dff9"/>
          <path id="Path_10761" data-name="Path 10761" d="M225.258,182.474l-2.227-1.286c-.179-.1-.156-.284.05-.4l2.207-1.274a.776.776,0,0,1,.7-.029l2.227,1.286c.179.1.156.284-.05.4l-2.207,1.274a.776.776,0,0,1-.7.029" transform="translate(-128.284 -103.252)" fill="#b9dff9"/>
          <path id="Path_10762" data-name="Path 10762" d="M236.094,188.731l-4.86-2.806c-.179-.1-.156-.284.05-.4l2.207-1.274a.776.776,0,0,1,.7-.029l4.86,2.806c.179.1.156.284-.05.4l-2.207,1.274a.776.776,0,0,1-.7.029" transform="translate(-133.005 -105.978)" fill="#b9dff9"/>
          <path id="Path_10763" data-name="Path 10763" d="M252.9,180.216l-4.1-2.368c-.179-.1-.157-.284.05-.4l2.207-1.274a.777.777,0,0,1,.7-.029l4.1,2.368c.179.1.156.284-.05.4l-2.207,1.274a.776.776,0,0,1-.7.029" transform="translate(-143.112 -101.329)" fill="#b9dff9"/>
          <path id="Path_10764" data-name="Path 10764" d="M174.624,144.132l-2.227-1.286c-.179-.1-.156-.284.05-.4l2.207-1.274a.776.776,0,0,1,.7-.029l2.227,1.286c.179.1.157.284-.05.4l-2.207,1.274a.776.776,0,0,1-.7.029" transform="translate(-99.145 -81.186)" fill="#b9dff9"/>
          <path id="Path_10765" data-name="Path 10765" d="M166.319,139.338l-2.228-1.286c-.179-.1-.156-.284.05-.4l2.207-1.274a.776.776,0,0,1,.7-.029l2.228,1.286c.178.1.156.284-.051.4l-2.207,1.274a.775.775,0,0,1-.7.029" transform="translate(-94.365 -78.427)" fill="#b9dff9"/>
          <path id="Path_10766" data-name="Path 10766" d="M158.015,134.543l-2.227-1.286c-.179-.1-.156-.284.05-.4l2.207-1.274a.776.776,0,0,1,.7-.029l2.227,1.286c.179.1.156.284-.05.4l-2.207,1.274a.776.776,0,0,1-.7.029" transform="translate(-89.586 -75.668)" fill="#b9dff9"/>
          <path id="Path_10767" data-name="Path 10767" d="M149.71,129.749l-2.227-1.286c-.179-.1-.156-.284.05-.4l2.207-1.274a.776.776,0,0,1,.7-.029l2.227,1.286c.179.1.156.284-.051.4l-2.207,1.274a.776.776,0,0,1-.7.029" transform="translate(-84.807 -72.909)" fill="#b9dff9"/>
          <path id="Path_10768" data-name="Path 10768" d="M182.727,148.811l-2.227-1.286c-.179-.1-.156-.284.05-.4l2.207-1.274a.776.776,0,0,1,.7-.029l2.227,1.286c.179.1.156.284-.051.4l-2.207,1.274a.776.776,0,0,1-.7.029" transform="translate(-103.808 -83.879)" fill="#b9dff9"/>
          <path id="Path_10769" data-name="Path 10769" d="M190.83,153.489,188.6,152.2c-.179-.1-.156-.284.05-.4l2.207-1.274a.776.776,0,0,1,.7-.029l2.227,1.286c.179.1.156.284-.05.4l-2.207,1.274a.776.776,0,0,1-.7.029" transform="translate(-108.471 -86.571)" fill="#b9dff9"/>
          <path id="Path_10770" data-name="Path 10770" d="M198.933,158.167l-2.227-1.286c-.179-.1-.156-.284.05-.4l2.207-1.274a.776.776,0,0,1,.7-.029l2.227,1.286c.179.1.156.284-.05.4l-2.207,1.274a.776.776,0,0,1-.7.029" transform="translate(-113.134 -89.263)" fill="#b9dff9"/>
          <path id="Path_10771" data-name="Path 10771" d="M207.036,162.845l-2.227-1.286c-.179-.1-.156-.284.05-.4l2.207-1.274a.776.776,0,0,1,.7-.029l2.227,1.286c.179.1.156.284-.051.4l-2.207,1.274a.776.776,0,0,1-.7.029" transform="translate(-117.798 -91.955)" fill="#b9dff9"/>
          <path id="Path_10772" data-name="Path 10772" d="M215.139,167.524l-2.227-1.286c-.179-.1-.157-.284.05-.4l2.207-1.274a.776.776,0,0,1,.7-.029l2.227,1.286c.179.1.157.284-.05.4l-2.207,1.274a.776.776,0,0,1-.7.029" transform="translate(-122.461 -94.648)" fill="#b9dff9"/>
          <path id="Path_10773" data-name="Path 10773" d="M223.242,172.2l-2.227-1.286c-.179-.1-.156-.284.05-.4l2.207-1.274a.776.776,0,0,1,.7-.029L226.2,170.5c.179.1.156.284-.05.4l-2.207,1.274a.776.776,0,0,1-.7.029" transform="translate(-127.124 -97.34)" fill="#b9dff9"/>
          <path id="Path_10774" data-name="Path 10774" d="M231.345,176.88l-2.227-1.286c-.179-.1-.156-.284.05-.4l2.207-1.274a.776.776,0,0,1,.7-.029l2.227,1.286c.179.1.156.284-.05.4l-2.207,1.274a.776.776,0,0,1-.7.029" transform="translate(-131.787 -100.033)" fill="#b9dff9"/>
          <path id="Path_10775" data-name="Path 10775" d="M239.448,181.558l-2.227-1.286c-.179-.1-.157-.284.05-.4l2.207-1.274a.776.776,0,0,1,.7-.029l2.227,1.286c.179.1.156.284-.051.4l-2.207,1.274a.776.776,0,0,1-.7.029" transform="translate(-136.45 -102.725)" fill="#b9dff9"/>
          <path id="Path_10776" data-name="Path 10776" d="M247.551,186.237l-2.227-1.286c-.179-.1-.157-.284.05-.4l2.207-1.274a.776.776,0,0,1,.7-.029l2.227,1.286c.179.1.157.284-.05.4l-2.207,1.274a.776.776,0,0,1-.7.029" transform="translate(-141.114 -105.418)" fill="#b9dff9"/>
          <path id="Path_10777" data-name="Path 10777" d="M170.357,132.561l-2.227-1.286c-.179-.1-.157-.284.05-.4l2.207-1.274a.776.776,0,0,1,.7-.029l2.227,1.286c.179.1.157.284-.05.4l-2.207,1.274a.776.776,0,0,1-.7.029" transform="translate(-96.689 -74.527)" fill="#b9dff9"/>
          <path id="Path_10778" data-name="Path 10778" d="M162.295,127.906l-2.227-1.286c-.179-.1-.157-.284.05-.4l2.207-1.274a.775.775,0,0,1,.7-.029l2.228,1.286c.179.1.156.284-.05.4l-2.207,1.274a.776.776,0,0,1-.7.029" transform="translate(-92.049 -71.848)" fill="#b9dff9"/>
          <path id="Path_10779" data-name="Path 10779" d="M154.232,123.251,152,121.966c-.179-.1-.156-.284.05-.4l2.207-1.274a.776.776,0,0,1,.7-.029l2.227,1.286c.179.1.156.284-.05.4l-2.207,1.274a.776.776,0,0,1-.7.029" transform="translate(-87.409 -69.169)" fill="#b9dff9"/>
          <path id="Path_10780" data-name="Path 10780" d="M146.169,118.6l-2.227-1.286c-.179-.1-.157-.284.05-.4l2.207-1.274a.776.776,0,0,1,.7-.029l2.227,1.286c.179.1.157.284-.05.4l-2.207,1.274a.776.776,0,0,1-.7.029" transform="translate(-82.769 -66.49)" fill="#b9dff9"/>
          <path id="Path_10781" data-name="Path 10781" d="M154.46,114.966l-2.227-1.286c-.179-.1-.156-.284.05-.4l.73-.422a.776.776,0,0,1,.7-.029l2.227,1.286c.179.1.157.284-.05.4l-.729.421a.776.776,0,0,1-.7.029" transform="translate(-87.54 -64.892)" fill="#b9dff9"/>
          <path id="Path_10782" data-name="Path 10782" d="M164.982,121.041l-2.227-1.286c-.179-.1-.156-.284.05-.4l.73-.422a.775.775,0,0,1,.7-.029l2.227,1.286c.179.1.157.284-.05.4l-.729.421a.776.776,0,0,1-.7.029" transform="translate(-93.596 -68.388)" fill="#b9dff9"/>
          <path id="Path_10783" data-name="Path 10783" d="M173.011,125.677l-2.227-1.286c-.179-.1-.157-.284.05-.4l.73-.422a.776.776,0,0,1,.7-.029l2.227,1.286c.179.1.157.284-.05.4l-.729.421a.776.776,0,0,1-.7.029" transform="translate(-98.216 -71.056)" fill="#b9dff9"/>
          <path id="Path_10784" data-name="Path 10784" d="M181.04,130.312l-2.227-1.286c-.179-.1-.156-.284.05-.4l.73-.422a.776.776,0,0,1,.7-.029l2.227,1.286c.179.1.157.284-.05.4l-.729.421a.776.776,0,0,1-.7.029" transform="translate(-102.837 -73.723)" fill="#b9dff9"/>
          <path id="Path_10785" data-name="Path 10785" d="M189.069,134.948l-2.227-1.286c-.179-.1-.156-.284.05-.4l.73-.422a.776.776,0,0,1,.7-.029l2.227,1.286c.179.1.157.284-.05.4l-.729.421a.776.776,0,0,1-.7.029" transform="translate(-107.458 -76.391)" fill="#b9dff9"/>
          <path id="Path_10786" data-name="Path 10786" d="M233.894,160.828l-2.227-1.286c-.179-.1-.156-.284.05-.4l.73-.422a.775.775,0,0,1,.7-.029l2.227,1.286c.179.1.157.284-.05.4l-.729.421a.776.776,0,0,1-.7.029" transform="translate(-133.254 -91.285)" fill="#b9dff9"/>
          <path id="Path_10787" data-name="Path 10787" d="M241.923,165.463l-2.227-1.286c-.179-.1-.156-.284.05-.4l.73-.422a.776.776,0,0,1,.7-.029l2.227,1.286c.179.1.157.284-.05.4l-.729.421a.776.776,0,0,1-.7.029" transform="translate(-137.875 -93.953)" fill="#b9dff9"/>
          <path id="Path_10788" data-name="Path 10788" d="M249.952,170.1l-2.227-1.286c-.179-.1-.157-.284.05-.4l.73-.421a.775.775,0,0,1,.7-.029l2.227,1.286c.179.1.157.284-.05.4l-.729.421a.776.776,0,0,1-.7.029" transform="translate(-142.496 -96.621)" fill="#b9dff9"/>
          <path id="Path_10789" data-name="Path 10789" d="M257.981,174.734l-2.227-1.286c-.179-.1-.156-.284.05-.4l.73-.422a.776.776,0,0,1,.7-.029l2.227,1.286c.179.1.157.284-.05.4l-.729.421a.776.776,0,0,1-.7.029" transform="translate(-147.116 -99.288)" fill="#b9dff9"/>
          <path id="Path_10790" data-name="Path 10790" d="M178.46,137.239l-2.227-1.286c-.179-.1-.156-.284.05-.4l2.207-1.274a.776.776,0,0,1,.7-.029l2.227,1.286c.179.1.156.284-.05.4l-2.207,1.274a.776.776,0,0,1-.7.029" transform="translate(-101.352 -77.219)" fill="#b9dff9"/>
          <path id="Path_10791" data-name="Path 10791" d="M186.563,141.918l-2.227-1.286c-.179-.1-.157-.284.05-.4l2.207-1.274a.776.776,0,0,1,.7-.029l2.227,1.286c.179.1.156.284-.05.4l-2.207,1.274a.776.776,0,0,1-.7.029" transform="translate(-106.015 -79.912)" fill="#b9dff9"/>
          <path id="Path_10792" data-name="Path 10792" d="M194.666,146.6l-2.227-1.286c-.179-.1-.157-.284.05-.4l2.207-1.274a.776.776,0,0,1,.7-.029l2.227,1.286c.179.1.156.284-.051.4l-2.207,1.274a.776.776,0,0,1-.7.029" transform="translate(-110.679 -82.604)" fill="#b9dff9"/>
          <path id="Path_10793" data-name="Path 10793" d="M202.769,151.274l-2.227-1.286c-.179-.1-.156-.284.05-.4l2.207-1.274a.776.776,0,0,1,.7-.029l2.227,1.286c.179.1.157.284-.05.4l-2.207,1.274a.776.776,0,0,1-.7.029" transform="translate(-115.342 -85.296)" fill="#b9dff9"/>
          <path id="Path_10794" data-name="Path 10794" d="M210.872,155.952l-2.227-1.286c-.179-.1-.156-.284.05-.4l2.207-1.274a.776.776,0,0,1,.7-.029l2.227,1.286c.179.1.156.284-.05.4l-2.207,1.274a.776.776,0,0,1-.7.029" transform="translate(-120.005 -87.989)" fill="#b9dff9"/>
          <path id="Path_10795" data-name="Path 10795" d="M218.975,160.631l-2.227-1.286c-.179-.1-.157-.284.05-.4L219,157.668a.776.776,0,0,1,.7-.029l2.227,1.286c.179.1.156.284-.05.4l-2.207,1.274a.776.776,0,0,1-.7.029" transform="translate(-124.668 -90.681)" fill="#b9dff9"/>
          <path id="Path_10796" data-name="Path 10796" d="M227.078,165.309l-2.227-1.286c-.179-.1-.156-.284.05-.4l2.207-1.274a.776.776,0,0,1,.7-.029l2.227,1.286c.179.1.156.284-.051.4l-2.207,1.274a.776.776,0,0,1-.7.029" transform="translate(-129.332 -93.373)" fill="#b9dff9"/>
          <path id="Path_10797" data-name="Path 10797" d="M235.181,169.987l-2.227-1.286c-.179-.1-.156-.284.05-.4l2.207-1.274a.776.776,0,0,1,.7-.029l2.227,1.286c.179.1.156.284-.051.4l-2.207,1.274a.776.776,0,0,1-.7.029" transform="translate(-133.995 -96.066)" fill="#b9dff9"/>
          <path id="Path_10798" data-name="Path 10798" d="M243.284,174.665l-2.227-1.286c-.179-.1-.156-.284.05-.4l2.207-1.274a.776.776,0,0,1,.7-.029l2.227,1.286c.179.1.156.284-.05.4l-2.207,1.274a.776.776,0,0,1-.7.029" transform="translate(-138.658 -98.758)" fill="#b9dff9"/>
          <path id="Path_10799" data-name="Path 10799" d="M126.26,134.426l-6.56-3.787c-.179-.1-.156-.284.05-.4l2.207-1.274a.775.775,0,0,1,.7-.029l6.56,3.787c.179.1.156.284-.05.4l-2.207,1.274a.776.776,0,0,1-.7.029" transform="translate(-68.818 -74.161)" fill="#b9dff9"/>
          <path id="Path_10800" data-name="Path 10800" d="M225.807,191.9l-6.56-3.787c-.179-.1-.156-.284.05-.4l2.207-1.274a.775.775,0,0,1,.7-.029l6.56,3.787c.179.1.156.284-.05.4l-2.207,1.274a.776.776,0,0,1-.7.029" transform="translate(-126.107 -107.236)" fill="#b9dff9"/>
          <path id="Path_10801" data-name="Path 10801" d="M199.276,186.585l-2.227-1.286c-.179-.1-.156-.284.05-.4l2.629-1.518a.776.776,0,0,1,.7-.029l2.227,1.286c.179.1.156.284-.05.4l-2.629,1.518a.776.776,0,0,1-.7.029" transform="translate(-113.332 -105.477)" fill="#b9dff9"/>
          <path id="Path_10802" data-name="Path 10802" d="M138.622,151.567l-3.562-2.057c-.179-.1-.157-.284.05-.4l2.629-1.518a.775.775,0,0,1,.7-.029L142,149.617c.179.1.156.284-.05.4l-2.629,1.518a.776.776,0,0,1-.7.029" transform="translate(-77.657 -84.881)" fill="#b9dff9"/>
          <path id="Path_10803" data-name="Path 10803" d="M189.659,181.033l-3.562-2.057c-.179-.1-.157-.284.05-.4l2.629-1.518a.775.775,0,0,1,.7-.029l3.562,2.057c.179.1.156.284-.05.4L190.357,181a.776.776,0,0,1-.7.029" transform="translate(-107.029 -101.839)" fill="#b9dff9"/>
          <path id="Path_10804" data-name="Path 10804" d="M150.313,158.316l-3.562-2.057c-.179-.1-.156-.284.051-.4l2.629-1.518a.775.775,0,0,1,.7-.029l3.562,2.057c.179.1.156.284-.05.4l-2.629,1.518a.776.776,0,0,1-.7.029" transform="translate(-84.385 -88.765)" fill="#b9dff9"/>
          <path id="Path_10805" data-name="Path 10805" d="M150.349,154.438l15.487,8.942a.212.212,0,0,1,0,.4l-2.681,1.548a.77.77,0,0,1-.7,0l-15.488-8.942Z" transform="translate(-84.582 -88.879)" fill="#b9dff9"/>
          <path id="Path_10806" data-name="Path 10806" d="M222.683,199.471l2.481,1.432c.146.085.128.233-.041.33l-1.076.621a.636.636,0,0,1-.572.024l-2.481-1.433c-.147-.084-.128-.232.041-.33l1.076-.621a.636.636,0,0,1,.572-.024" transform="translate(-127.125 -114.762)" fill="#b9dff9"/>
          <path id="Path_10807" data-name="Path 10807" d="M214.513,194.754l2.481,1.432c.146.085.128.233-.041.33l-1.076.621a.636.636,0,0,1-.572.024l-2.481-1.433c-.147-.084-.128-.232.041-.33l1.076-.621a.636.636,0,0,1,.572-.024" transform="translate(-122.423 -112.048)" fill="#b9dff9"/>
          <path id="Path_10808" data-name="Path 10808" d="M206.41,190.076l2.481,1.432c.146.085.128.233-.041.33l-1.076.621a.636.636,0,0,1-.572.024l-2.481-1.433c-.147-.084-.128-.232.041-.33l1.076-.621a.636.636,0,0,1,.572-.024" transform="translate(-117.76 -109.356)" fill="#b9dff9"/>
          <path id="Path_10809" data-name="Path 10809" d="M218.987,192.171l2.481,1.432c.146.085.128.233-.041.33l-1.076.621a.636.636,0,0,1-.572.024l-2.481-1.433c-.147-.084-.128-.232.041-.33l1.076-.621a.636.636,0,0,1,.572-.024" transform="translate(-124.998 -110.561)" fill="#b9dff9"/>
          <path id="Path_10810" data-name="Path 10810" d="M236.632,64.019,214.261,51.1l.288-1.454L236.92,62.564Z" transform="translate(-123.307 -28.573)" fill="#5793ce"/>
          <path id="Path_10811" data-name="Path 10811" d="M226.915,75.088,211.3,66.072l.288-1.454L227.2,73.633Z" transform="translate(-121.602 -37.187)" fill="#5793ce"/>
          <path id="Path_10812" data-name="Path 10812" d="M226.29,66.387l-13.51-7.8.288-1.454,13.51,7.8Z" transform="translate(-122.455 -32.88)" fill="#fff"/>
          <path id="Path_10813" data-name="Path 10813" d="M256.323,83.727l-6.755-3.9.288-1.454,6.755,3.9Z" transform="translate(-143.626 -45.103)" fill="#ff2c9c"/>
          <path id="Path_10814" data-name="Path 10814" d="M241.875,117.181l-3.953,18.738-14.192-8.19,3.1-6.089Z" transform="translate(-128.757 -67.437)" fill="#0a2d60"/>
          <path id="Path_10815" data-name="Path 10815" d="M158.885,155.6h0a5.921,5.921,0,0,1,0-10.256l19.842-11.456L198.9,145.532,181.467,155.6a22.581,22.581,0,0,1-22.582,0" transform="translate(-89.735 -77.051)" fill="#5793ce"/>
          <path id="Path_10816" data-name="Path 10816" d="M196.308,41.032,189.329,37l.3-1.5,6.979,4.029Z" transform="translate(-108.958 -20.43)" fill="#d4ecff"/>
          <path id="Path_10817" data-name="Path 10817" d="M194.845,48.536l-6.979-4.029.3-1.5,6.979,4.029Z" transform="translate(-108.116 -24.749)" fill="#fff"/>
          <path id="Path_10818" data-name="Path 10818" d="M55.268,75.154h.007c-3.194-1.774-5.188-5.66-5.206-11.223-.034-11.013,7.682-24.477,17.2-30.013l6.87-4,.332.186L105.987,47.83,98,53.02l-3,2.193L90.88,59.524l-.663.6-4.391,6.653-1.611,4.166L83.02,74.259l-.981,6.948-.067.6.354,2.929,1.013,3.627,1.429,2.457,2.08,2.468Z" transform="translate(-28.815 -17.22)" fill="#5793ce"/>
          <path id="Path_10819" data-name="Path 10819" d="M163.88,71.793l0,1.166L142.972,85.1a7.41,7.41,0,0,1,1.708-2.162Z" transform="translate(-82.28 -41.317)" fill="#d4ecff"/>
          <path id="Path_10820" data-name="Path 10820" d="M185.6,89.894l-31.515-18.1L135.006,83.246l-2.388,2.78-3.587,6.3-2.253,6.3-.734,4.924-.092,4.917,3.078,7.032,4,2.339,4.116.214L142.083,116,181.1,93.051Z" transform="translate(-72.485 -41.317)" fill="#d4ecff"/>
          <path id="Path_10821" data-name="Path 10821" d="M55.5,124.765c-2.673-1.484-4.5-4.452-5.037-8.639L82.61,134.549l.956,3.425L85,140.431l2.079,2.468L55.5,124.764Z" transform="translate(-29.044 -66.83)" fill="#396caa"/>
          <path id="Path_10822" data-name="Path 10822" d="M50.36,110.078a20,20,0,0,1-.29-3.388c0-.811.042-1.636.121-2.469l32.042,18.365-.195,1.38-.067.6.354,2.929.3,1.077Z" transform="translate(-28.815 -59.979)" fill="#173d7a"/>
          <path id="Path_10823" data-name="Path 10823" d="M184.658,91.243l0-1.166-43.021,25c-8.964,5.213-16.283,1.018-16.316-9.352s7.234-23.048,16.2-28.261l7.2-4.187,0-1.166-7.2,4.187c-9.52,5.536-17.237,19-17.2,30.013s7.808,15.468,17.328,9.932Z" transform="translate(-71.54 -41.499)" fill="#173d7a"/>
          <path id="Path_10824" data-name="Path 10824" d="M198.115,107.135l-19.37-11.3-1.215.694,19.37,11.3Z" transform="translate(-102.168 -55.156)" fill="#5793ce"/>
          <path id="Path_10825" data-name="Path 10825" d="M204.773,96.576l-13.522-7.885-1.215.695,13.522,7.884Z" transform="translate(-109.366 -51.042)" fill="#5793ce"/>
          <path id="Path_10826" data-name="Path 10826" d="M196.7,99.087,185,92.266l-1.215.694,11.7,6.821Z" transform="translate(-105.767 -53.099)" fill="#5793ce"/>
          <path id="Path_10827" data-name="Path 10827" d="M222.7,114.25l-5.849-3.41-1.215.694,5.849,3.41Z" transform="translate(-124.098 -63.788)" fill="#5793ce"/>
          <path id="Path_10828" data-name="Path 10828" d="M215.46,225l41.791-24.145c1.013-.585.886-1.607-.284-2.283a4.393,4.393,0,0,0-3.953-.164l-41.791,24.145c-1.013.585-.886,1.607.284,2.282a4.394,4.394,0,0,0,3.953.164" transform="translate(-121.165 -113.957)" fill="#666" opacity="0.16"/>
          <path id="Path_10829" data-name="Path 10829" d="M325.374,185.154h0a.161.161,0,0,0-.172-.077l-2.225.459.86,1.5,1.518-1.691a.16.16,0,0,0,.02-.187" transform="translate(-185.873 -106.509)" fill="#ff2c9c"/>
          <path id="Path_10830" data-name="Path 10830" d="M315.263,186.556a1.11,1.11,0,0,0-.5-.871.364.364,0,0,0-.333-.044,14.181,14.181,0,0,0-7.32,1.882l-.161.093,2.711,4.719.82-.532a14.179,14.179,0,0,0,4.3-4.37l.354-.566a.363.363,0,0,0,.13-.31" transform="translate(-176.649 -106.823)" fill="#5793ce"/>
          <path id="Path_10831" data-name="Path 10831" d="M309.458,193.626a4.253,4.253,0,0,0-1.917-3.337c-1.062-.616-1.924-.12-1.926,1.107a4.252,4.252,0,0,0,1.917,3.337c1.061.616,1.924.121,1.926-1.107" transform="translate(-175.881 -109.359)" fill="#5793ce"/>
          <path id="Path_10832" data-name="Path 10832" d="M270.2,205.077l16.467-10.034-2.711-4.719L267,199.5Z" transform="translate(-153.656 -109.531)" fill="#5793ce"/>
          <path id="Path_10833" data-name="Path 10833" d="M269.961,215.845A5.026,5.026,0,0,0,267.7,211.9c-1.254-.728-2.274-.142-2.277,1.308a5.025,5.025,0,0,0,2.266,3.943c1.254.728,2.273.142,2.276-1.308" transform="translate(-152.748 -121.77)" fill="#d4ecff"/>
          <path id="Path_10834" data-name="Path 10834" d="M267.749,217.116a5.026,5.026,0,0,0-2.266-3.943c-1.254-.728-2.273-.142-2.276,1.308a5.025,5.025,0,0,0,2.266,3.943c1.254.728,2.273.142,2.276-1.308" transform="translate(-151.475 -122.501)" fill="#d4ecff"/>
          <rect id="Rectangle_2562" data-name="Rectangle 2562" width="25.117" height="6.43" transform="translate(90.622 103.023) rotate(-29.881)" fill="#d4ecff"/>
          <path id="Path_10835" data-name="Path 10835" d="M216.445,246.594a5.026,5.026,0,0,0-2.266-3.943c-1.254-.728-2.273-.142-2.276,1.308a5.025,5.025,0,0,0,2.266,3.943c1.254.728,2.273.142,2.276-1.308" transform="translate(-121.95 -139.466)" fill="#d4ecff"/>
          <path id="Path_10836" data-name="Path 10836" d="M216.732,247.71a3.321,3.321,0,0,0-1.533-2.4c-.805-.467-1.425-.152-1.383.7a3.32,3.32,0,0,0,1.533,2.4c.805.467,1.425.152,1.383-.7" transform="translate(-123.049 -141.054)" fill="#396caa"/>
          <path id="Path_10837" data-name="Path 10837" d="M271.609,215.226a5.025,5.025,0,0,0-2.265-3.942,1.774,1.774,0,0,0-1.349-.266,1.45,1.45,0,0,1,1.846-.027,5.026,5.026,0,0,1,2.265,3.942c0,.866-.368,1.42-.928,1.574a1.8,1.8,0,0,0,.43-1.281" transform="translate(-154.231 -121.246)" fill="#fff"/>
          <path id="Path_10838" data-name="Path 10838" d="M269.585,215.621a5.027,5.027,0,0,0-2.266-3.943,1.6,1.6,0,0,0-1.608-.162l-1.234.709.575,1a5.133,5.133,0,0,0,2.055,3.575l.575,1,1.234-.709a1.6,1.6,0,0,0,.669-1.47" transform="translate(-152.207 -121.641)" fill="#5793ce"/>
          <path id="Path_10839" data-name="Path 10839" d="M267.444,217.291a5.028,5.028,0,0,0-2.266-3.943c-1.254-.728-2.274-.142-2.277,1.308a5.025,5.025,0,0,0,2.266,3.943c1.254.728,2.273.142,2.277-1.308" transform="translate(-151.3 -122.602)" fill="#d4ecff"/>
          <path id="Path_10840" data-name="Path 10840" d="M209.2,249.483l-1.382-2.406-4.616,2.652a1.387,1.387,0,1,0,1.382,2.406Z" transform="translate(-116.539 -142.193)" fill="#ff2c9c"/>
          <path id="Path_10841" data-name="Path 10841" d="M216.3,248.761a2.168,2.168,0,0,0-.978-1.7c-.541-.314-.981-.062-.982.564a2.168,2.168,0,0,0,.977,1.7c.541.314.981.062.982-.564" transform="translate(-123.35 -142.105)" fill="#ff2c9c"/>
          <path id="Path_10842" data-name="Path 10842" d="M222.721,222.3l-.685-.4a1.465,1.465,0,0,0-1.473.143l-2.372,1.363a1.794,1.794,0,0,0-.814,1.4l0,1.181a.97.97,0,0,1-.244.591l.083.548-.585-.343h0a.3.3,0,0,1-.138-.289l0-1.181a3.744,3.744,0,0,1,1.7-2.926l2.372-1.363a2.084,2.084,0,0,1,2.1-.2l.684.4a1.464,1.464,0,0,0,1.474-.143l9.562-5.494a.307.307,0,0,1,.315-.028h0l.583.342-.5.188a.971.971,0,0,1-.4.514l-9.562,5.494a2.082,2.082,0,0,1-2.1.2" transform="translate(-124.591 -124.035)" fill="#5793ce"/>
          <path id="Path_10843" data-name="Path 10843" d="M223.433,222.718a1.465,1.465,0,0,0-1.474.143l-2.372,1.363a1.794,1.794,0,0,0-.814,1.4l0,1.181a.972.972,0,0,1-.441.761c-.244.14-.44.026-.44-.255l0-1.181a3.743,3.743,0,0,1,1.7-2.926l2.372-1.363a2.083,2.083,0,0,1,2.1-.2l.684.4a1.465,1.465,0,0,0,1.474-.143l9.562-5.494c.243-.14.44-.026.439.255a.973.973,0,0,1-.441.762l-9.562,5.494a2.083,2.083,0,0,1-2.1.2Z" transform="translate(-125.395 -124.505)" fill="#5793ce"/>
          <path id="Path_10844" data-name="Path 10844" d="M219.887,238.27l0,1.181c0,.008,0,.016,0,.024a.755.755,0,0,0,.035-.218l0-1.181c0-.034.006-.069.009-.1a1.316,1.316,0,0,0-.04.3" transform="translate(-126.541 -136.953)" fill="#fff"/>
          <path id="Path_10845" data-name="Path 10845" d="M205.878,260.708l4.372-2.524c.527-.3.461-.836-.148-1.188a2.286,2.286,0,0,0-2.057-.085l-4.372,2.524c-.528.3-.461.836.147,1.188h0a2.286,2.286,0,0,0,2.057.085" transform="translate(-117.009 -147.733)" fill="#666" opacity="0.16"/>
          <path id="Path_10846" data-name="Path 10846" d="M5.842,147.765,0,144.392l5.842-3.373,5.842,3.373Z" transform="translate(0 -81.157)" fill="#666" opacity="0.16"/>
          <path id="Path_10949" data-name="Path 10949" d="M17.309,154.915,0,144.392l5.842-3.373,17.309,10.523Z" transform="translate(20.501 -46.079)" fill="#666" opacity="0.16"/>
          <path id="Path_10847" data-name="Path 10847" d="M19.606,130.805l-5.842,3.373v-6.746l5.842-3.373Z" transform="translate(-7.921 -71.396)" fill="#d3008d"/>
          <path id="Path_10848" data-name="Path 10848" d="M5.842,122.86,0,119.487l5.842-3.373,5.842,3.373Z" transform="translate(0 -66.823)" fill="#ff2c9c"/>
          <path id="Path_10849" data-name="Path 10849" d="M5.842,134.179,0,130.806v-6.746l5.842,3.373Z" transform="translate(0 -71.396)" fill="#ff2c9c"/>
          <path id="Path_10850" data-name="Path 10850" d="M320.014,149.641l-6.508-3.757,6.508-3.757,6.508,3.757Z" transform="translate(-180.422 -81.794)" fill="#666" opacity="0.16"/>
          <path id="Path_10851" data-name="Path 10851" d="M335.344,130.751l-6.508,3.757v-7.514l6.508-3.757Z" transform="translate(-189.245 -70.923)" fill="#173d7a"/>
          <path id="Path_10852" data-name="Path 10852" d="M320.014,121.9l-6.508-3.757,6.508-3.757,6.508,3.757Z" transform="translate(-180.422 -65.829)" fill="#d4ecff"/>
          <path id="Path_10853" data-name="Path 10853" d="M320.014,134.508l-6.508-3.757v-7.514l6.508,3.757Z" transform="translate(-180.422 -70.923)" fill="#5793ce"/>
          <path id="Path_10858" data-name="Path 10858" d="M156.947,125.209a15.456,15.456,0,0,1-13.985,0c-3.862-2.23-3.862-5.845,0-8.074a15.454,15.454,0,0,1,13.984,0c3.862,2.229,3.862,5.845,0,8.074" transform="translate(-80.608 -66.448)" fill="#5793ce"/>
          <path id="Path_10859" data-name="Path 10859" d="M159.844,114.254v-1.818h-.524a6.32,6.32,0,0,0-2.373-2.219,15.453,15.453,0,0,0-13.984,0,6.31,6.31,0,0,0-2.373,2.219h-.523v1.8h0c-.006,1.466.958,2.933,2.9,4.052a15.454,15.454,0,0,0,13.984,0c1.931-1.115,2.9-2.576,2.9-4.037" transform="translate(-80.608 -62.468)" fill="#d3008d"/>
          <path id="Path_10860" data-name="Path 10860" d="M156.947,114.009a15.456,15.456,0,0,1-13.985,0c-3.862-2.23-3.862-5.845,0-8.074a15.453,15.453,0,0,1,13.984,0c3.862,2.229,3.862,5.845,0,8.074" transform="translate(-80.608 -60.003)" fill="#ff2c9c"/>
          <path id="Path_10861" data-name="Path 10861" d="M156.961,121.994a15.454,15.454,0,0,1-13.985,0c-1.851-1.068-2.8-2.455-2.882-3.855-.083,1.521.871,3.058,2.882,4.219a15.454,15.454,0,0,0,13.985,0c2.011-1.161,2.965-2.7,2.881-4.219-.076,1.4-1.03,2.787-2.881,3.855" transform="translate(-80.621 -67.989)" fill="#fff"/>
          <path id="Path_10862" data-name="Path 10862" d="M151.78,115.932a.444.444,0,0,1-.261-.364l.01-3.72c0-.284.4-.513.891-.513s.889.23.888.515l-.008,3.084,8.952-1.1c.481-.059.953.119,1.055.4s-.205.551-.686.61l-10.028,1.228a1.408,1.408,0,0,1-.746-.1c-.024-.011-.047-.023-.068-.036" transform="translate(-87.199 -64.073)" fill="#fff"/>
          <path id="Path_10863" data-name="Path 10863" d="M263.393,95.232a.692.692,0,0,1-1,.307.868.868,0,0,1-.357-1.09.692.692,0,0,1,1-.307.868.868,0,0,1,.357,1.089" transform="translate(-150.761 -54.12)" fill="#ff2c9c"/>
          <path id="Path_10864" data-name="Path 10864" d="M269.023,98.483a.693.693,0,0,1-1,.307.868.868,0,0,1-.357-1.09.692.692,0,0,1,1-.307.867.867,0,0,1,.357,1.089" transform="translate(-154.001 -55.991)" fill="#fff"/>
          <path id="Path_10865" data-name="Path 10865" d="M274.652,101.733a.693.693,0,0,1-1,.307.868.868,0,0,1-.357-1.09.692.692,0,0,1,1-.307.868.868,0,0,1,.357,1.089" transform="translate(-157.241 -57.861)" fill="#d4ecff"/>
          <path id="Path_10866" data-name="Path 10866" d="M280.281,104.983a.693.693,0,0,1-1,.307.868.868,0,0,1-.357-1.09.692.692,0,0,1,1-.307.868.868,0,0,1,.357,1.089" transform="translate(-160.48 -59.732)" fill="#ff2c9c"/>
          <path id="Path_10867" data-name="Path 10867" d="M89.145,30.107l-.332-.186h0l-6.87,4a29.483,29.483,0,0,0-6.38,5.135l11.765,6.792,14.7-8.489Z" transform="translate(-43.486 -17.22)" fill="#173d7a"/>
          <path id="Path_10868" data-name="Path 10868" d="M118.665,13.093l-2.134-1.232L124.4,7.32a.411.411,0,0,0,0-.778L116.362,1.9a1.492,1.492,0,0,0-1.347,0l-7.866,4.541-2.134-1.231L112.881.67a6.214,6.214,0,0,1,5.614,0l8.036,4.64c1.548.894,1.548,2.348,0,3.241Z" transform="translate(-60.436 0)" fill="#ff2c9c"/>
          <path id="Path_10869" data-name="Path 10869" d="M99.428,16.7a3.709,3.709,0,0,0-1.549-2.959L83.627,5.514a.993.993,0,0,0-1-.086h0L65.607,15.316l16.455,12.4,16.764-9.73a.775.775,0,0,0,.148-.086h0a1.457,1.457,0,0,0,.453-1.2" transform="translate(-37.757 -3.067)" fill="#d4ecff"/>
          <path id="Path_10870" data-name="Path 10870" d="M101.44,40.9l16.764-9.73a.775.775,0,0,0,.148-.086,1.456,1.456,0,0,0,.453-1.2,3.8,3.8,0,0,0-.418-1.648L99.278,39.271Z" transform="translate(-57.134 -16.25)" fill="#5793ce"/>
          <path id="Path_10871" data-name="Path 10871" d="M80.426,40.956,66.174,32.728a3.71,3.71,0,0,1-1.549-2.96c0-1.141.694-1.665,1.549-1.171l14.252,8.228a3.71,3.71,0,0,1,1.549,2.96c0,1.14-.694,1.664-1.549,1.171" transform="translate(-37.192 -16.351)" fill="#5793ce"/>
          <path id="Path_10872" data-name="Path 10872" d="M81.541,36.644,67.289,28.416a.983.983,0,0,0-1.024-.073,1.078,1.078,0,0,1,.853.15L81.37,36.722a3.709,3.709,0,0,1,1.549,2.959,1.38,1.38,0,0,1-.525,1.243c.419-.127.7-.6.7-1.321h0a3.71,3.71,0,0,0-1.549-2.959" transform="translate(-38.135 -16.247)" fill="#fff"/>
          <path id="Path_10873" data-name="Path 10873" d="M94.076,48.919l-1.713-.988a.739.739,0,0,1-.309-.59c0-.228.138-.332.309-.233l1.713.989a.738.738,0,0,1,.309.59c0,.228-.138.332-.309.233" transform="translate(-52.977 -27.089)" fill="#fff"/>
          <path id="Path_10874" data-name="Path 10874" d="M98.281,22.1a.574.574,0,0,0-.011-1.087,2.081,2.081,0,0,0-1.883.02.574.574,0,0,0,.011,1.087,2.081,2.081,0,0,0,1.883-.02" transform="translate(-55.249 -11.969)" fill="#5793ce"/>
          <path id="Path_10875" data-name="Path 10875" d="M105.041,25.909a.574.574,0,0,0-.011-1.087,2.081,2.081,0,0,0-1.883.02.574.574,0,0,0,.011,1.087,2.081,2.081,0,0,0,1.883-.02" transform="translate(-59.14 -14.161)" fill="#fff"/>
          <path id="Path_10876" data-name="Path 10876" d="M111.8,29.719a.574.574,0,0,0-.011-1.087,2.081,2.081,0,0,0-1.883.02.574.574,0,0,0,.011,1.087,2.081,2.081,0,0,0,1.883-.02" transform="translate(-63.03 -16.354)" fill="#fff"/>
        </g>
      </g>
      <g id="Group_3764" data-name="Group 3764" transform="translate(21.78 83.744)">
        <g id="Group_3763" data-name="Group 3763" clip-path="url(#clip-path)">
          <path id="Path_7439" data-name="Path 7439" d="M21.4,10.125,4.142.161A.883.883,0,0,0,3.25.09V.079l-1.674.967,1.176.43V14.044A3.326,3.326,0,0,0,4.142,16.7l16.5,9.524V27.7l1.691-.974-.009,0a1.231,1.231,0,0,0,.469-1.107V12.779A3.326,3.326,0,0,0,21.4,10.125" transform="translate(-1.049 0)" fill="#173d7a"/>
          <path id="Path_7440" data-name="Path 7440" d="M18.647,29.584,1.389,19.62A3.326,3.326,0,0,1,0,16.967V4.134c0-1.023.622-1.493,1.389-1.05l17.259,9.964A3.326,3.326,0,0,1,20.036,15.7V28.534c0,1.023-.622,1.493-1.389,1.05" transform="translate(0 -1.94)" fill="#5793ce"/>
          <path id="Path_7441" data-name="Path 7441" d="M20.586,12.466,3.328,2.5a.826.826,0,0,0-1.047.043,1.036,1.036,0,0,1,.624.155l17.259,9.964a3.325,3.325,0,0,1,1.389,2.653V28.149a1.368,1.368,0,0,1-.342,1.007c.452-.045.764-.483.764-1.2V15.119a3.325,3.325,0,0,0-1.388-2.653" transform="translate(-1.517 -1.555)" fill="#fff"/>
          <path id="Path_7442" data-name="Path 7442" d="M16.846,35.251c0,.742-.522,1.044-1.165.672a2.575,2.575,0,0,1-1.164-2.017c0-.743.521-1.044,1.164-.672a2.574,2.574,0,0,1,1.165,2.017" transform="translate(-9.653 -21.994)" fill="#fff"/>
          <path id="Path_7443" data-name="Path 7443" d="M27.375,41.33c0,.742-.521,1.044-1.165.672a2.575,2.575,0,0,1-1.164-2.017c0-.743.521-1.044,1.164-.672a2.574,2.574,0,0,1,1.165,2.017" transform="translate(-16.655 -26.036)" fill="#fff"/>
          <path id="Path_7444" data-name="Path 7444" d="M37.9,47.409c0,.742-.521,1.044-1.165.672a2.575,2.575,0,0,1-1.164-2.017c0-.743.521-1.044,1.164-.672A2.574,2.574,0,0,1,37.9,47.409" transform="translate(-23.656 -30.078)" fill="#fff"/>
        </g>
      </g>
    </g>
    <g id="Group_4185" data-name="Group 4185" transform="translate(20 133.641)">
      <text id="TUA_APP_管理平台" data-name="TUA APP 管理平台" transform="translate(0 52.438)" fill="#1d70b7" font-size="19" font-family="NotoSansCJKtc-Bold, Noto Sans CJK TC" font-weight="700"><tspan x="0" y="0">TUA APP 管理平台</tspan></text>
    </g>
    <g id="landing_img_logo" transform="translate(66 133.311)">
      <path id="Path_10800-2" data-name="Path 10800" d="M72.612,14.918V37.662h7.133V15.152L72.612,8.758Z" transform="translate(-67.261 -8.113)" fill="#003879"/>
      <rect id="Rectangle_2593" data-name="Rectangle 2593" width="4.785" height="6.267" fill="#003879"/>
      <path id="Path_10801-2" data-name="Path 10801" d="M73.861,0,80.87,6.267h5.107V0Z" transform="translate(-68.419 0)" fill="#003879"/>
      <g id="Group_3802" data-name="Group 3802">
        <g id="Group_3801" data-name="Group 3801" clip-path="url(#clip-path-2)">
          <path id="Path_10802-2" data-name="Path 10802" d="M288.806,0V29.452a11.434,11.434,0,0,1-4.722-1.984c-2-1.488-3.016-3.98-3.016-7.405V0Z" transform="translate(-260.305)" fill="#003879"/>
          <path id="Path_10803-2" data-name="Path 10803" d="M468.09,0V20.063c0,3.425-1.015,5.917-3.017,7.405a11.438,11.438,0,0,1-4.721,1.983V0Z" transform="translate(-426.344)" fill="#003879"/>
          <rect id="Rectangle_2594" data-name="Rectangle 2594" width="4.33" height="10.051" transform="translate(29.111 19.499)" fill="#003879"/>
          <path id="Path_10804-2" data-name="Path 10804" d="M604.592,13.971l3.518,11.987-4.445,16.53H596.3l7.9-28.517Z" transform="translate(-552.247 -12.939)" fill="#003879"/>
          <path id="Path_10805-2" data-name="Path 10805" d="M719.042,0l8.32,29.549h-7.52l-5.626-19.288L711.223,0Z" transform="translate(-658.682)" fill="#003879"/>
        </g>
      </g>
    </g>
  </g>
</svg>
