<svg xmlns="http://www.w3.org/2000/svg" xmlns:xlink="http://www.w3.org/1999/xlink" width="200" height="200" viewBox="0 0 200 200">
  <defs>
    <clipPath id="clip-path">
      <rect id="Rectangle_2595" data-name="Rectangle 2595" width="68.68" height="29.549" fill="none"/>
    </clipPath>
    <clipPath id="clip-path-2">
      <rect id="Rectangle_2557" data-name="Rectangle 2557" width="22.207" height="28.407" fill="none"/>
    </clipPath>
    <clipPath id="clip-path-3">
      <rect id="Rectangle_2833" data-name="Rectangle 2833" width="70.459" height="55.401" fill="none"/>
    </clipPath>
    <clipPath id="clip-fb-img-sign">
      <rect width="200" height="200"/>
    </clipPath>
  </defs>
  <g id="fb-img-sign" clip-path="url(#clip-fb-img-sign)">
    <rect width="200" height="200" fill="#fff"/>
    <g id="Group_4185" data-name="Group 4185" transform="translate(20 133.641)">
      <text id="TUA_會議報名網" data-name="TUA 會議報名網" transform="translate(80 52.438)" fill="#1a1311" font-size="19" font-family="NotoSansCJKtc-Bold, Noto Sans CJK TC" font-weight="700"><tspan x="-68.647" y="0">TUA 會議報名網</tspan></text>
      <g id="landing_img_logo" transform="translate(46 -0.33)">
        <path id="Path_10800" data-name="Path 10800" d="M72.612,14.918V37.662h7.133V15.152L72.612,8.758Z" transform="translate(-67.261 -8.113)" fill="#003879"/>
        <rect id="Rectangle_2593" data-name="Rectangle 2593" width="4.785" height="6.267" fill="#003879"/>
        <path id="Path_10801" data-name="Path 10801" d="M73.861,0,80.87,6.267h5.107V0Z" transform="translate(-68.419 0)" fill="#003879"/>
        <g id="Group_3802" data-name="Group 3802">
          <g id="Group_3801" data-name="Group 3801" clip-path="url(#clip-path)">
            <path id="Path_10802" data-name="Path 10802" d="M288.806,0V29.452a11.434,11.434,0,0,1-4.722-1.984c-2-1.488-3.016-3.98-3.016-7.405V0Z" transform="translate(-260.305)" fill="#003879"/>
            <path id="Path_10803" data-name="Path 10803" d="M468.09,0V20.063c0,3.425-1.015,5.917-3.017,7.405a11.438,11.438,0,0,1-4.721,1.983V0Z" transform="translate(-426.344)" fill="#003879"/>
            <rect id="Rectangle_2594" data-name="Rectangle 2594" width="4.33" height="10.051" transform="translate(29.111 19.499)" fill="#003879"/>
            <path id="Path_10804" data-name="Path 10804" d="M604.592,13.971l3.518,11.987-4.445,16.53H596.3l7.9-28.517Z" transform="translate(-552.247 -12.939)" fill="#003879"/>
            <path id="Path_10805" data-name="Path 10805" d="M719.042,0l8.32,29.549h-7.52l-5.626-19.288L711.223,0Z" transform="translate(-658.682)" fill="#003879"/>
          </g>
        </g>
      </g>
    </g>
    <g id="sign-up-main" transform="translate(-294.102 -318)">
      <path id="Path_7205" data-name="Path 7205" d="M338.039,2.269a6.673,6.673,0,0,0-1.7,1.464c-.08-3.359-2.489-4.7-5.457-2.987a9.93,9.93,0,0,0-2.623,2.288C326.934.725,324.2.189,321.025,2.02c-4.46,2.576-8.076,8.838-8.076,13.988a9.548,9.548,0,0,0,.081,1.2,3.042,3.042,0,0,0-2.262.457,8.54,8.54,0,0,0-3.865,6.693c0,2.465,1.73,3.463,3.865,2.231l27.271-15.745a8.211,8.211,0,0,0,3.715-6.434c0-2.369-1.664-3.329-3.715-2.145" transform="translate(14.198 365.053)" fill="#fff"/>
      <g id="Group_3807" data-name="Group 3807" transform="translate(324.884 327)">
        <g id="Group_3770" data-name="Group 3770" transform="translate(7.907 0)">
          <path id="Path_7295" data-name="Path 7295" d="M301.889,151.386a1.216,1.216,0,0,1,0-2.433,30.848,30.848,0,0,0,4.887-.488c3.09-.576,5.207-1.591,5.962-2.86a1.216,1.216,0,1,1,2.091,1.244c-1.154,1.939-3.726,3.29-7.644,4.015a32.777,32.777,0,0,1-5.29.522Z" transform="translate(-283.643 -135.384)" fill="#d3008d"/>
          <path id="Path_7296" data-name="Path 7296" d="M456.981,218.485a1.224,1.224,0,0,1-.221-.02c-5.2-.954-7.409-6.545-7.5-6.783a1.216,1.216,0,0,1,2.268-.879,11.143,11.143,0,0,0,1.445,2.448,7,7,0,0,0,4.227,2.82,1.217,1.217,0,0,1-.218,2.413" transform="translate(-420.019 -195.09)" fill="#d3008d"/>
          <path id="Path_8768" data-name="Path 8768" d="M507.993,64.195s-2.986-3.533.306-7.955a10.763,10.763,0,0,1-2.691-3.081c-2.3-4.688-1.384-9.373,3.224-10.205,8.651-1.562,16.551,5.14,16.562,16.469.013,12.352-7.579,19.463-15.627,17.592-4.259-.991-5.493-5.912-4.927-9.048a4.557,4.557,0,0,1,3.153-3.771" transform="translate(-470.728 -41.456)" fill="#ff2c9c"/>
          <path id="Path_10703" data-name="Path 10703" d="M359.548,65.409a1.778,1.778,0,0,1-1.776-1.72c0-.112-.087-2.787.085-6.326a48.863,48.863,0,0,1,1.7-11.621c.764-2.475.836-6.07.206-10.395a50.367,50.367,0,0,0-1.227-5.94,1.778,1.778,0,0,1,3.418-.982,53.334,53.334,0,0,1,1.328,6.41c.715,4.914.605,8.937-.327,11.956-1.945,6.3-1.636,16.679-1.633,16.783a1.778,1.778,0,0,1-1.72,1.835h-.059" transform="translate(-336.056 -27.137)" fill="#5793ce"/>
          <path id="Path_10704" data-name="Path 10704" d="M428.408,65.077a1.637,1.637,0,0,1-1.631-1.514,66.67,66.67,0,0,1,.685-14.661,53.734,53.734,0,0,0,.619-12.474,52.048,52.048,0,0,0-.611-5.628,1.638,1.638,0,0,1,3.221-.592,54.05,54.05,0,0,1,.656,5.968,58.17,58.17,0,0,1-.66,13.3,64.49,64.49,0,0,0-.644,13.842,1.638,1.638,0,0,1-1.51,1.755q-.063,0-.124,0" transform="translate(-399.325 -28.726)" fill="#d3008d"/>
          <path id="Path_10705" data-name="Path 10705" d="M281.9,180.714h-.023a1.263,1.263,0,0,1,.012-2.526h.009a11.89,11.89,0,0,0,3.664-.686,6.485,6.485,0,0,0,4.406-4.48,1.263,1.263,0,0,1,2.441.651,9.007,9.007,0,0,1-6.065,6.233,14.365,14.365,0,0,1-4.444.809" transform="translate(-265.23 -160.245)" fill="#5793ce"/>
          <path id="Path_10706" data-name="Path 10706" d="M393.372,306.827h-.045a13.89,13.89,0,0,1-5.63-1.386,14.731,14.731,0,0,1-3.842-2.728,15.215,15.215,0,0,1-2.925-3.9l2.281-1.088,0,0a12.956,12.956,0,0,0,2.476,3.25,12.172,12.172,0,0,0,3.167,2.225,11.386,11.386,0,0,0,4.564,1.108,1.263,1.263,0,0,1-.044,2.526" transform="translate(-357.346 -275.619)" fill="#5793ce"/>
          <path id="Subtraction_1" data-name="Subtraction 1" d="M1.99,34.582h0c-.326,0-.657-.015-.985-.045a11.887,11.887,0,0,0,8.532-5.2,21.5,21.5,0,0,0,3.57-12.64C13.1,7.451,7.707.6,0,.036.332.012.664,0,.986,0a13.092,13.092,0,0,1,9.9,4.508,15.847,15.847,0,0,1,3.054,5.259,20.745,20.745,0,0,1,1.133,6.926,25.215,25.215,0,0,1-1.05,7.451,17.638,17.638,0,0,1-2.849,5.632A11.557,11.557,0,0,1,1.99,34.582Z" transform="translate(39.597 1.273)" fill="#d3008d" stroke="rgba(0,0,0,0)" stroke-miterlimit="10" stroke-width="1"/>
          <path id="Path_7297" data-name="Path 7297" d="M109.55,64.195s2.986-3.533-.306-7.955a10.764,10.764,0,0,0,2.691-3.081c2.3-4.688,1.384-9.373-3.224-10.205-8.651-1.562-16.551,5.14-16.562,16.469-.013,12.352,7.579,19.463,15.627,17.592,4.26-.991,5.493-5.912,4.927-9.048a4.557,4.557,0,0,0-3.153-3.771" transform="translate(-92.149 -41.456)" fill="#ff2c9c"/>
          <path id="Subtraction_2" data-name="Subtraction 2" d="M.65,34.582h0c-.216,0-.435-.007-.65-.02a11.394,11.394,0,0,0,1.9-.277c4.3-1,5.48-5.99,4.927-9.048A2.1,2.1,0,0,0,4.474,23.41a7.47,7.47,0,0,0-2.579.573L3.67,21.466a3.044,3.044,0,0,0,.815-1.639c.184-1,.047-2.671-1.654-4.955A30.573,30.573,0,0,0,6.055,10.43c1.379-2.814,1.6-5.562.6-7.538A5.069,5.069,0,0,0,2.832.225,14.128,14.128,0,0,0,1.006.016C1.227,0,1.445,0,1.654,0A13.994,13.994,0,0,1,4.133.225,5.069,5.069,0,0,1,7.954,2.891a6.533,6.533,0,0,1,.587,3.467A11.532,11.532,0,0,1,7.357,10.43a10.84,10.84,0,0,1-2.691,3.081A7.645,7.645,0,0,1,6.1,16.619a6.04,6.04,0,0,1-.049,2.527,6.042,6.042,0,0,1-1.081,2.319h0a4.091,4.091,0,0,1,1.359.7,4.491,4.491,0,0,1,1.057,1.148,5.273,5.273,0,0,1,.734,1.925,9.533,9.533,0,0,1-.654,5.329A6.185,6.185,0,0,1,3.2,34.285,11.265,11.265,0,0,1,.65,34.582Z" transform="translate(12.429 1.274)" fill="#d3008d" stroke="rgba(0,0,0,0)" stroke-miterlimit="10" stroke-width="1"/>
        </g>
        <g id="Group_3786" data-name="Group 3786" transform="translate(0 2.137)">
          <g id="Group_3989" data-name="Group 3989" transform="translate(0 0)">
            <path id="Path_10723" data-name="Path 10723" d="M115.87,177.153,65.585,148.122c-1.423-.821-1.244-2.256.4-3.2l34.24-19.762a6.168,6.168,0,0,1,5.55-.23l50.284,29.032c1.423.821,1.244,2.256-.4,3.2l-34.24,19.761a6.167,6.167,0,0,1-5.55.23" transform="translate(-39.759 -72.302)" fill="#666" opacity="0.16"/>
            <path id="Path_10724" data-name="Path 10724" d="M223.488,35.668,173.2,6.637a2.029,2.029,0,0,0-1.7-.209l0-.005-.091.034-.023.009-1.817.7,1.631.8c-.007.03-.017.058-.023.089l-8.191,37.283a4.707,4.707,0,0,0,1.833,4.865L213.9,78.53l-.175,2.08,1.986-.77a2.79,2.79,0,0,0,1.422-2.023l8.19-37.283a4.708,4.708,0,0,0-1.833-4.866" transform="translate(-94.879 -6.326)" fill="#173d7a"/>
            <path id="Path_10725" data-name="Path 10725" d="M227.273,35.668,176.989,6.637a2.029,2.029,0,0,0-1.7-.209l0-.005-.091.034-.023.009-1.817.7,1.631.8c-.007.03-.017.058-.023.089l-5.4,24.572,24.6,19.169,34.692-14.116a3.9,3.9,0,0,0-1.588-2" transform="translate(-98.665 -6.326)" fill="#396caa"/>
            <path id="Path_10726" data-name="Path 10726" d="M293.337,80.078l3.828-1.63a4.8,4.8,0,0,0-1.551-3.833l-6.059,2.549Z" transform="translate(-166.624 -44.75)" fill="#274f89"/>
            <path id="Path_10727" data-name="Path 10727" d="M207.885,81.328,157.6,52.3a4.709,4.709,0,0,1-1.833-4.866l8.191-37.283c.41-1.866,1.9-2.713,3.318-1.891L217.56,37.288a4.707,4.707,0,0,1,1.833,4.865L211.2,79.436c-.41,1.866-1.9,2.713-3.318,1.891" transform="translate(-90.789 -7.241)" fill="#e5e5e5"/>
            <path id="Path_10728" data-name="Path 10728" d="M209.5,82.126,162.2,54.836a4.309,4.309,0,0,1-1.678-4.452l7.495-34.117c.375-1.707,1.734-2.482,3.036-1.731l47.292,27.29a4.309,4.309,0,0,1,1.678,4.452L212.532,80.4c-.375,1.707-1.734,2.482-3.036,1.731" transform="translate(-93.489 -10.813)" fill="#fff"/>
            <path id="Path_10729" data-name="Path 10729" d="M209.5,82.126,162.2,54.836a4.309,4.309,0,0,1-1.678-4.452l7.495-34.117c.375-1.707,1.734-2.482,3.036-1.731l47.292,27.29a4.309,4.309,0,0,1,1.678,4.452L212.532,80.4c-.375,1.707-1.734,2.482-3.036,1.731" transform="translate(-93.489 -10.813)" fill="#173d7a"/>
            <path id="Path_10730" data-name="Path 10730" d="M157.02,144.729l-6.874-.908L105.776,118.2a6.166,6.166,0,0,0-5.549.23L68.786,136.58l-4.156-.549v2.358h0a1.619,1.619,0,0,0,.954,1.456l50.285,29.032a6.168,6.168,0,0,0,5.549-.23l34.24-19.762a2.241,2.241,0,0,0,1.358-1.866Z" transform="translate(-39.762 -68.495)" fill="#173d7a"/>
            <path id="Path_10731" data-name="Path 10731" d="M123.682,140.392l-3.152-1.82H85.872L68.786,148.43l-4.156-.549v2.358h0a1.619,1.619,0,0,0,.954,1.457l50.284,29.032a5.207,5.207,0,0,0,2.864.537Z" transform="translate(-40.028 -80.345)" fill="#396caa"/>
            <path id="Path_10732" data-name="Path 10732" d="M66.474,160.284l-1.845-.244V162.4h0a1.619,1.619,0,0,0,.954,1.457l.886.512Z" transform="translate(-40.386 -92.822)" fill="#5793ce"/>
            <path id="Path_10733" data-name="Path 10733" d="M183.974,229.083a6.441,6.441,0,0,0,4.716-.293v-5.26h-4.716Z" transform="translate(-107.319 -128.464)" fill="#274f89"/>
            <path id="Path_10734" data-name="Path 10734" d="M115.87,161.416,65.585,132.385c-1.423-.821-1.244-2.256.4-3.2l34.24-19.762a6.168,6.168,0,0,1,5.55-.23l50.284,29.032c1.423.821,1.244,2.256-.4,3.2l-34.24,19.761a6.169,6.169,0,0,1-5.55.23" transform="translate(-39.759 -63.389)" fill="#fff"/>
            <path id="Path_10735" data-name="Path 10735" d="M155.664,169.2l-34.24,19.762a6.168,6.168,0,0,1-5.549.23L65.59,160.158a1.872,1.872,0,0,1-.884-.967,1.521,1.521,0,0,0,.884,1.829l50.285,29.032a6.168,6.168,0,0,0,5.549-.23l34.24-19.762c1.1-.637,1.543-1.494,1.283-2.237a2.672,2.672,0,0,1-1.283,1.375" transform="translate(-39.764 -92.023)" fill="#fff"/>
            <path id="Path_10736" data-name="Path 10736" d="M113.029,136.832l-2.275-1.313c-.183-.106-.16-.29.051-.411l2.685-1.551a.793.793,0,0,1,.713-.029l2.275,1.313c.183.105.16.29-.051.411l-2.685,1.551a.793.793,0,0,1-.713.029" transform="translate(-66.052 -77.867)" fill="#b9dff9"/>
            <path id="Path_10737" data-name="Path 10737" d="M121.132,141.511l-2.275-1.313c-.183-.106-.16-.29.051-.412l2.685-1.551a.793.793,0,0,1,.713-.029l2.275,1.313c.183.105.16.29-.051.411l-2.685,1.551a.793.793,0,0,1-.713.029" transform="translate(-70.61 -80.5)" fill="#b9dff9"/>
            <path id="Path_10738" data-name="Path 10738" d="M129.235,146.189l-2.275-1.313c-.183-.106-.16-.29.051-.411l2.685-1.551a.793.793,0,0,1,.713-.029l2.275,1.313c.183.105.16.29-.051.411l-2.685,1.551a.793.793,0,0,1-.713.029" transform="translate(-75.169 -83.132)" fill="#b9dff9"/>
            <path id="Path_10739" data-name="Path 10739" d="M140.442,142.65l-2.275-1.313c-.183-.106-.16-.29.051-.411l2.254-1.3a.793.793,0,0,1,.713-.029l2.275,1.313c.183.106.16.29-.051.411l-2.254,1.3a.793.793,0,0,1-.713.029" transform="translate(-81.475 -81.282)" fill="#b9dff9"/>
            <path id="Path_10740" data-name="Path 10740" d="M148.545,147.329l-2.275-1.313c-.183-.106-.16-.29.051-.411l2.254-1.3a.793.793,0,0,1,.713-.029l2.275,1.313c.183.106.16.29-.051.411l-2.254,1.3a.793.793,0,0,1-.713.029" transform="translate(-86.034 -83.915)" fill="#b9dff9"/>
            <path id="Path_10741" data-name="Path 10741" d="M156.648,152.007l-2.275-1.313c-.183-.106-.16-.29.051-.411l2.254-1.3a.792.792,0,0,1,.712-.029l2.275,1.313c.183.106.16.29-.051.411l-2.254,1.3a.793.793,0,0,1-.713.029" transform="translate(-90.592 -86.548)" fill="#b9dff9"/>
            <path id="Path_10742" data-name="Path 10742" d="M164.751,156.685l-2.275-1.313c-.183-.106-.16-.29.051-.411l2.254-1.3a.793.793,0,0,1,.713-.029l2.275,1.313c.183.106.16.29-.051.411l-2.254,1.3a.793.793,0,0,1-.713.029" transform="translate(-95.151 -89.18)" fill="#b9dff9"/>
            <path id="Path_10743" data-name="Path 10743" d="M172.854,161.363l-2.275-1.313c-.183-.106-.16-.29.051-.411l2.254-1.3a.793.793,0,0,1,.713-.029l2.275,1.313c.183.106.16.29-.051.411l-2.254,1.3a.793.793,0,0,1-.713.029" transform="translate(-99.709 -91.813)" fill="#b9dff9"/>
            <path id="Path_10744" data-name="Path 10744" d="M180.957,166.042l-2.275-1.313c-.183-.106-.16-.29.051-.411l2.254-1.3a.793.793,0,0,1,.713-.029l2.275,1.313c.183.106.16.29-.051.411l-2.254,1.3a.793.793,0,0,1-.713.029" transform="translate(-104.268 -94.446)" fill="#b9dff9"/>
            <path id="Path_10745" data-name="Path 10745" d="M189.06,170.72l-2.275-1.313c-.183-.106-.16-.29.051-.411l2.254-1.3a.793.793,0,0,1,.713-.029l2.275,1.313c.183.106.16.29-.051.411l-2.254,1.3a.793.793,0,0,1-.713.029" transform="translate(-108.826 -97.078)" fill="#b9dff9"/>
            <path id="Path_10746" data-name="Path 10746" d="M197.163,175.4l-2.275-1.313c-.183-.106-.16-.29.051-.411l2.254-1.3a.792.792,0,0,1,.713-.029l2.275,1.313c.183.105.16.29-.051.411l-2.254,1.3a.793.793,0,0,1-.713.029" transform="translate(-113.385 -99.711)" fill="#b9dff9"/>
            <path id="Path_10747" data-name="Path 10747" d="M205.266,180.076l-2.275-1.313c-.183-.105-.16-.29.051-.411l2.254-1.3a.793.793,0,0,1,.713-.029l2.275,1.313c.183.106.16.29-.051.411l-2.254,1.3a.793.793,0,0,1-.713.029" transform="translate(-117.944 -102.343)" fill="#b9dff9"/>
            <path id="Path_10748" data-name="Path 10748" d="M213.369,184.755l-2.275-1.313c-.183-.106-.16-.29.051-.411l2.254-1.3a.793.793,0,0,1,.713-.029l2.275,1.313c.183.106.16.29-.051.411l-2.254,1.3a.793.793,0,0,1-.713.029" transform="translate(-122.502 -104.976)" fill="#b9dff9"/>
            <path id="Path_10749" data-name="Path 10749" d="M152.381,140.435l-2.275-1.313c-.183-.106-.16-.29.051-.411l2.254-1.3a.792.792,0,0,1,.713-.029l2.275,1.313c.183.106.16.29-.051.411l-2.254,1.3a.793.793,0,0,1-.713.029" transform="translate(-88.192 -80.035)" fill="#b9dff9"/>
            <path id="Path_10750" data-name="Path 10750" d="M144.157,135.687l-2.275-1.313c-.183-.106-.16-.29.051-.411l2.254-1.3a.793.793,0,0,1,.713-.029l2.275,1.313c.183.106.16.29-.051.411l-2.254,1.3a.793.793,0,0,1-.713.029" transform="translate(-83.565 -77.364)" fill="#b9dff9"/>
            <path id="Path_10751" data-name="Path 10751" d="M132.491,128.953l-4.9-2.829c-.183-.105-.16-.29.051-.411l2.254-1.3a.793.793,0,0,1,.713-.029l4.9,2.829c.183.106.16.29-.052.411l-2.254,1.3a.793.793,0,0,1-.713.029" transform="translate(-75.516 -72.715)" fill="#b9dff9"/>
            <path id="Path_10752" data-name="Path 10752" d="M139.456,123.865l-3.977-2.3c-.183-.105-.16-.29.051-.411l2.254-1.3a.793.793,0,0,1,.713-.03l3.977,2.3c.183.106.16.29-.051.411l-2.254,1.3a.793.793,0,0,1-.713.029" transform="translate(-79.957 -70.154)" fill="#b9dff9"/>
            <path id="Path_10753" data-name="Path 10753" d="M160.484,145.114l-2.275-1.313c-.183-.106-.16-.29.051-.411l2.254-1.3a.792.792,0,0,1,.713-.029l2.275,1.313c.183.106.16.29-.051.411l-2.254,1.3a.793.793,0,0,1-.713.029" transform="translate(-92.75 -82.669)" fill="#b9dff9"/>
            <path id="Path_10754" data-name="Path 10754" d="M168.587,149.792l-2.275-1.313c-.183-.106-.16-.29.051-.411l2.254-1.3a.793.793,0,0,1,.713-.029l2.275,1.313c.183.106.16.29-.051.411l-2.254,1.3a.793.793,0,0,1-.713.029" transform="translate(-97.309 -85.301)" fill="#b9dff9"/>
            <path id="Path_10755" data-name="Path 10755" d="M176.69,154.47l-2.275-1.313c-.183-.106-.16-.29.051-.412l2.254-1.3a.793.793,0,0,1,.713-.029l2.275,1.313c.183.106.16.29-.051.411l-2.254,1.3a.793.793,0,0,1-.713.029" transform="translate(-101.868 -87.934)" fill="#b9dff9"/>
            <path id="Path_10756" data-name="Path 10756" d="M184.793,159.149l-2.275-1.313c-.183-.106-.16-.29.051-.411l2.254-1.3a.793.793,0,0,1,.713-.029l2.275,1.313c.183.106.16.29-.052.412l-2.254,1.3a.793.793,0,0,1-.713.029" transform="translate(-106.426 -90.567)" fill="#b9dff9"/>
            <path id="Path_10757" data-name="Path 10757" d="M192.9,163.827l-2.275-1.313c-.183-.106-.16-.29.051-.411l2.254-1.3a.793.793,0,0,1,.713-.029l2.275,1.313c.183.106.16.29-.051.411l-2.254,1.3a.793.793,0,0,1-.713.029" transform="translate(-110.985 -93.199)" fill="#b9dff9"/>
            <path id="Path_10758" data-name="Path 10758" d="M201,168.505l-2.275-1.313c-.183-.106-.16-.29.051-.411l2.254-1.3a.793.793,0,0,1,.713-.029l2.275,1.313c.183.106.16.29-.051.411l-2.254,1.3a.793.793,0,0,1-.713.029" transform="translate(-115.543 -95.832)" fill="#b9dff9"/>
            <path id="Path_10759" data-name="Path 10759" d="M209.1,173.183l-2.275-1.313c-.183-.106-.16-.29.051-.411l2.254-1.3a.793.793,0,0,1,.713-.029l2.275,1.313c.183.106.16.29-.052.411l-2.254,1.3a.793.793,0,0,1-.713.029" transform="translate(-120.102 -98.464)" fill="#b9dff9"/>
            <path id="Path_10760" data-name="Path 10760" d="M217.205,177.862l-2.275-1.313c-.183-.106-.16-.29.051-.411l2.254-1.3a.793.793,0,0,1,.713-.029l2.275,1.313c.183.106.16.29-.051.411l-2.254,1.3a.793.793,0,0,1-.713.029" transform="translate(-124.66 -101.097)" fill="#b9dff9"/>
            <path id="Path_10761" data-name="Path 10761" d="M225.308,182.54l-2.275-1.313c-.183-.106-.16-.29.051-.411l2.254-1.3a.793.793,0,0,1,.713-.029l2.275,1.313c.183.106.16.29-.051.411l-2.254,1.3a.793.793,0,0,1-.713.029" transform="translate(-129.219 -103.73)" fill="#b9dff9"/>
            <path id="Path_10762" data-name="Path 10762" d="M236.2,188.829l-4.964-2.866c-.183-.105-.16-.29.051-.411l2.254-1.3a.793.793,0,0,1,.713-.03l4.964,2.866c.183.106.16.29-.051.411l-2.254,1.3a.793.793,0,0,1-.713.029" transform="translate(-133.816 -106.386)" fill="#b9dff9"/>
            <path id="Path_10763" data-name="Path 10763" d="M252.988,180.305l-4.19-2.419c-.183-.105-.16-.29.051-.411l2.254-1.3a.794.794,0,0,1,.713-.029l4.19,2.419c.183.105.16.29-.051.411l-2.254,1.3a.793.793,0,0,1-.713.029" transform="translate(-143.7 -101.843)" fill="#b9dff9"/>
            <path id="Path_10764" data-name="Path 10764" d="M174.674,144.2l-2.275-1.313c-.183-.106-.16-.29.051-.411l2.254-1.3a.793.793,0,0,1,.713-.029l2.275,1.313c.183.106.16.29-.051.411l-2.254,1.3a.793.793,0,0,1-.713.029" transform="translate(-100.733 -82.153)" fill="#b9dff9"/>
            <path id="Path_10765" data-name="Path 10765" d="M166.37,139.4l-2.276-1.313c-.183-.106-.16-.29.051-.411l2.254-1.3a.793.793,0,0,1,.713-.029l2.276,1.313c.182.106.159.29-.052.411l-2.254,1.3a.792.792,0,0,1-.712.029" transform="translate(-96.061 -79.455)" fill="#b9dff9"/>
            <path id="Path_10766" data-name="Path 10766" d="M158.065,134.609,155.79,133.3c-.183-.106-.16-.29.051-.411l2.254-1.3a.793.793,0,0,1,.713-.029l2.275,1.313c.183.106.16.29-.051.411l-2.254,1.3a.793.793,0,0,1-.713.029" transform="translate(-91.39 -76.757)" fill="#b9dff9"/>
            <path id="Path_10767" data-name="Path 10767" d="M149.76,129.815l-2.275-1.313c-.183-.106-.16-.29.051-.411l2.254-1.3a.793.793,0,0,1,.713-.029l2.275,1.313c.183.106.16.29-.052.411l-2.254,1.3a.793.793,0,0,1-.713.029" transform="translate(-86.717 -74.059)" fill="#b9dff9"/>
            <path id="Path_10768" data-name="Path 10768" d="M182.777,148.877l-2.275-1.313c-.183-.106-.16-.29.051-.411l2.254-1.3a.792.792,0,0,1,.713-.029l2.275,1.313c.183.106.16.29-.052.412l-2.254,1.3a.793.793,0,0,1-.713.029" transform="translate(-105.292 -84.786)" fill="#b9dff9"/>
            <path id="Path_10769" data-name="Path 10769" d="M190.88,153.555l-2.275-1.313c-.183-.106-.16-.29.051-.411l2.254-1.3a.793.793,0,0,1,.713-.029l2.275,1.313c.183.105.16.29-.051.411l-2.254,1.3a.793.793,0,0,1-.713.029" transform="translate(-109.851 -87.419)" fill="#b9dff9"/>
            <path id="Path_10770" data-name="Path 10770" d="M198.983,158.233l-2.275-1.313c-.183-.106-.16-.29.051-.412l2.254-1.3a.792.792,0,0,1,.713-.029L202,156.49c.183.106.16.29-.051.411l-2.254,1.3a.793.793,0,0,1-.713.029" transform="translate(-114.409 -90.051)" fill="#b9dff9"/>
            <path id="Path_10771" data-name="Path 10771" d="M207.086,162.911l-2.275-1.313c-.183-.106-.16-.29.051-.411l2.254-1.3a.792.792,0,0,1,.713-.029l2.275,1.313c.183.106.16.29-.052.411l-2.254,1.3a.793.793,0,0,1-.713.029" transform="translate(-118.968 -92.684)" fill="#b9dff9"/>
            <path id="Path_10772" data-name="Path 10772" d="M215.189,167.59l-2.275-1.313c-.183-.106-.16-.29.051-.411l2.254-1.3a.793.793,0,0,1,.713-.029l2.275,1.313c.183.106.16.29-.051.411l-2.254,1.3a.793.793,0,0,1-.713.029" transform="translate(-123.526 -95.317)" fill="#b9dff9"/>
            <path id="Path_10773" data-name="Path 10773" d="M223.292,172.268l-2.275-1.313c-.183-.106-.16-.29.051-.411l2.254-1.3a.792.792,0,0,1,.713-.029l2.275,1.313c.183.106.16.29-.051.411l-2.254,1.3a.793.793,0,0,1-.713.029" transform="translate(-128.085 -97.949)" fill="#b9dff9"/>
            <path id="Path_10774" data-name="Path 10774" d="M231.4,176.946l-2.275-1.313c-.183-.106-.16-.29.051-.411l2.254-1.3a.793.793,0,0,1,.713-.029l2.275,1.313c.183.106.16.29-.051.411l-2.254,1.3a.793.793,0,0,1-.713.029" transform="translate(-132.643 -100.582)" fill="#b9dff9"/>
            <path id="Path_10775" data-name="Path 10775" d="M239.5,181.624l-2.275-1.313c-.183-.106-.16-.29.051-.411l2.254-1.3a.793.793,0,0,1,.713-.029l2.275,1.313c.183.106.16.29-.052.412l-2.254,1.3a.793.793,0,0,1-.713.029" transform="translate(-137.202 -103.215)" fill="#b9dff9"/>
            <path id="Path_10776" data-name="Path 10776" d="M247.6,186.3l-2.275-1.313c-.183-.106-.16-.29.051-.411l2.254-1.3a.793.793,0,0,1,.713-.029l2.275,1.313c.183.106.16.29-.051.411l-2.254,1.3a.793.793,0,0,1-.713.029" transform="translate(-141.76 -105.848)" fill="#b9dff9"/>
            <path id="Path_10777" data-name="Path 10777" d="M170.407,132.627l-2.275-1.313c-.183-.106-.16-.29.051-.411l2.254-1.3a.793.793,0,0,1,.713-.029l2.275,1.313c.183.106.16.29-.051.411l-2.254,1.3a.793.793,0,0,1-.713.029" transform="translate(-98.333 -75.642)" fill="#b9dff9"/>
            <path id="Path_10778" data-name="Path 10778" d="M162.345,127.972l-2.275-1.313c-.183-.106-.16-.29.051-.412l2.254-1.3a.792.792,0,0,1,.712-.029l2.276,1.313c.183.106.16.29-.051.412l-2.254,1.3a.793.793,0,0,1-.713.029" transform="translate(-93.797 -73.022)" fill="#b9dff9"/>
            <path id="Path_10779" data-name="Path 10779" d="M154.282,123.317,152.007,122c-.183-.106-.16-.29.051-.411l2.254-1.3a.793.793,0,0,1,.713-.029l2.275,1.313c.183.106.16.29-.051.411l-2.254,1.3a.793.793,0,0,1-.713.029" transform="translate(-89.261 -70.402)" fill="#b9dff9"/>
            <path id="Path_10780" data-name="Path 10780" d="M146.219,118.662l-2.275-1.313c-.183-.106-.16-.29.051-.411l2.254-1.3a.793.793,0,0,1,.713-.029l2.275,1.313c.183.106.16.29-.051.411l-2.254,1.3a.793.793,0,0,1-.713.029" transform="translate(-84.725 -67.783)" fill="#b9dff9"/>
            <path id="Path_10781" data-name="Path 10781" d="M154.51,115.013l-2.275-1.313c-.183-.106-.16-.29.051-.411l.745-.431a.793.793,0,0,1,.712-.029l2.275,1.314c.183.105.16.29-.051.412l-.745.43a.793.793,0,0,1-.713.029" transform="translate(-89.396 -66.223)" fill="#b9dff9"/>
            <path id="Path_10782" data-name="Path 10782" d="M165.032,121.088l-2.275-1.313c-.183-.106-.16-.29.051-.411l.745-.431a.792.792,0,0,1,.712-.029l2.275,1.314c.183.105.16.29-.051.411l-.745.43a.793.793,0,0,1-.713.029" transform="translate(-95.316 -69.642)" fill="#b9dff9"/>
            <path id="Path_10783" data-name="Path 10783" d="M173.061,125.724l-2.275-1.313c-.183-.106-.16-.29.051-.411l.745-.431a.793.793,0,0,1,.712-.029l2.275,1.314c.183.105.16.29-.051.411l-.745.43a.793.793,0,0,1-.713.029" transform="translate(-99.833 -72.251)" fill="#b9dff9"/>
            <path id="Path_10784" data-name="Path 10784" d="M181.09,130.359l-2.275-1.313c-.183-.106-.16-.29.051-.411l.745-.431a.793.793,0,0,1,.712-.029l2.275,1.314c.183.105.16.29-.051.411l-.745.43a.793.793,0,0,1-.713.029" transform="translate(-104.35 -74.859)" fill="#b9dff9"/>
            <path id="Path_10785" data-name="Path 10785" d="M189.119,135l-2.275-1.313c-.183-.106-.16-.29.051-.411l.745-.431a.793.793,0,0,1,.712-.029l2.275,1.314c.183.105.16.29-.051.411l-.745.43a.793.793,0,0,1-.713.029" transform="translate(-108.868 -77.468)" fill="#b9dff9"/>
            <path id="Path_10786" data-name="Path 10786" d="M233.944,160.875l-2.275-1.313c-.183-.106-.16-.29.051-.411l.745-.431a.792.792,0,0,1,.712-.029L235.453,160c.183.105.16.29-.051.411l-.745.43a.793.793,0,0,1-.713.029" transform="translate(-134.087 -92.033)" fill="#b9dff9"/>
            <path id="Path_10787" data-name="Path 10787" d="M241.973,165.51,239.7,164.2c-.183-.106-.16-.29.051-.411l.745-.431a.793.793,0,0,1,.712-.029l2.275,1.314c.183.105.16.29-.051.411l-.745.43a.793.793,0,0,1-.713.029" transform="translate(-138.604 -94.641)" fill="#b9dff9"/>
            <path id="Path_10788" data-name="Path 10788" d="M250,170.146l-2.275-1.313c-.183-.106-.16-.29.051-.411l.745-.43a.792.792,0,0,1,.712-.03l2.275,1.314c.183.105.16.29-.051.411l-.745.43a.793.793,0,0,1-.713.029" transform="translate(-143.122 -97.251)" fill="#b9dff9"/>
            <path id="Path_10789" data-name="Path 10789" d="M258.031,174.781l-2.275-1.313c-.183-.106-.16-.29.051-.411l.745-.431a.793.793,0,0,1,.712-.029l2.275,1.314c.183.105.16.29-.051.411l-.745.43a.793.793,0,0,1-.713.029" transform="translate(-147.639 -99.859)" fill="#b9dff9"/>
            <path id="Path_10790" data-name="Path 10790" d="M178.51,137.305l-2.275-1.313c-.183-.106-.16-.29.051-.411l2.254-1.3a.793.793,0,0,1,.713-.03l2.275,1.313c.183.106.16.29-.051.411l-2.254,1.3a.793.793,0,0,1-.713.029" transform="translate(-102.891 -78.274)" fill="#b9dff9"/>
            <path id="Path_10791" data-name="Path 10791" d="M186.613,141.984l-2.275-1.313c-.183-.106-.16-.29.051-.411l2.254-1.3a.793.793,0,0,1,.713-.029l2.275,1.313c.183.106.16.29-.051.411l-2.254,1.3a.793.793,0,0,1-.713.029" transform="translate(-107.45 -80.907)" fill="#b9dff9"/>
            <path id="Path_10792" data-name="Path 10792" d="M194.716,146.662l-2.275-1.313c-.183-.106-.16-.29.051-.411l2.254-1.3a.793.793,0,0,1,.713-.029l2.275,1.313c.183.106.16.29-.052.411l-2.254,1.3a.793.793,0,0,1-.713.029" transform="translate(-112.008 -83.54)" fill="#b9dff9"/>
            <path id="Path_10793" data-name="Path 10793" d="M202.819,151.34l-2.275-1.313c-.183-.106-.16-.29.051-.411l2.254-1.3a.793.793,0,0,1,.713-.029l2.275,1.313c.183.106.16.29-.051.411l-2.254,1.3a.793.793,0,0,1-.713.029" transform="translate(-116.567 -86.172)" fill="#b9dff9"/>
            <path id="Path_10794" data-name="Path 10794" d="M210.922,156.018l-2.275-1.313c-.183-.106-.16-.29.051-.411l2.254-1.3a.793.793,0,0,1,.713-.029l2.275,1.313c.183.106.16.29-.051.411l-2.254,1.3a.793.793,0,0,1-.713.029" transform="translate(-121.126 -88.805)" fill="#b9dff9"/>
            <path id="Path_10795" data-name="Path 10795" d="M219.025,160.7l-2.275-1.313c-.183-.106-.16-.29.051-.411l2.254-1.3a.793.793,0,0,1,.713-.029l2.275,1.313c.183.106.16.29-.051.412l-2.254,1.3a.793.793,0,0,1-.713.029" transform="translate(-125.684 -91.438)" fill="#b9dff9"/>
            <path id="Path_10796" data-name="Path 10796" d="M227.128,165.375l-2.275-1.313c-.183-.106-.16-.29.051-.411l2.254-1.3a.793.793,0,0,1,.713-.029l2.275,1.313c.183.105.16.29-.052.412l-2.254,1.3a.793.793,0,0,1-.713.029" transform="translate(-130.243 -94.07)" fill="#b9dff9"/>
            <path id="Path_10797" data-name="Path 10797" d="M235.231,170.053l-2.275-1.313c-.183-.106-.16-.29.051-.411l2.254-1.3a.793.793,0,0,1,.713-.029l2.275,1.313c.183.106.16.29-.052.411l-2.254,1.3a.793.793,0,0,1-.713.029" transform="translate(-134.802 -96.703)" fill="#b9dff9"/>
            <path id="Path_10798" data-name="Path 10798" d="M243.334,174.731l-2.275-1.313c-.183-.106-.16-.29.051-.412l2.254-1.3a.792.792,0,0,1,.713-.029l2.275,1.313c.183.106.16.29-.051.411l-2.254,1.3a.793.793,0,0,1-.713.029" transform="translate(-139.36 -99.335)" fill="#b9dff9"/>
            <path id="Path_10799" data-name="Path 10799" d="M126.4,134.546l-6.7-3.869c-.183-.105-.16-.29.051-.411l2.254-1.3a.791.791,0,0,1,.713-.029l6.7,3.868c.183.106.16.29-.051.411l-2.254,1.3a.793.793,0,0,1-.713.029" transform="translate(-71.073 -75.272)" fill="#b9dff9"/>
            <path id="Path_10800-2" data-name="Path 10800" d="M225.951,192.019l-6.7-3.869c-.183-.105-.16-.29.051-.411l2.254-1.3a.791.791,0,0,1,.713-.029l6.7,3.868c.183.106.16.29-.051.412l-2.254,1.3a.793.793,0,0,1-.713.029" transform="translate(-127.063 -107.61)" fill="#b9dff9"/>
            <path id="Path_10801-2" data-name="Path 10801" d="M199.326,186.656l-2.275-1.313c-.183-.106-.16-.29.051-.411l2.685-1.551a.793.793,0,0,1,.713-.029l2.275,1.313c.183.105.16.29-.051.411l-2.685,1.551a.793.793,0,0,1-.713.029" transform="translate(-114.6 -105.905)" fill="#b9dff9"/>
            <path id="Path_10802-2" data-name="Path 10802" d="M138.7,151.655l-3.638-2.1c-.183-.105-.16-.29.051-.411l2.685-1.55a.792.792,0,0,1,.712-.03l3.639,2.1c.183.105.16.29-.051.411l-2.685,1.551a.793.793,0,0,1-.713.029" transform="translate(-79.722 -85.761)" fill="#b9dff9"/>
            <path id="Path_10803-2" data-name="Path 10803" d="M189.738,181.121l-3.638-2.1c-.183-.105-.16-.29.051-.411l2.685-1.55a.792.792,0,0,1,.712-.03l3.639,2.1c.183.105.16.29-.051.411l-2.685,1.551a.793.793,0,0,1-.713.029" transform="translate(-108.432 -102.342)" fill="#b9dff9"/>
            <path id="Path_10804-2" data-name="Path 10804" d="M150.392,158.4l-3.639-2.1c-.183-.105-.16-.29.052-.411l2.685-1.55a.792.792,0,0,1,.712-.03l3.639,2.1c.183.105.16.29-.051.412l-2.685,1.551a.793.793,0,0,1-.713.029" transform="translate(-86.298 -89.559)" fill="#b9dff9"/>
            <path id="Path_10805-2" data-name="Path 10805" d="M150.421,154.438l15.82,9.134a.217.217,0,0,1,0,.41l-2.739,1.581a.786.786,0,0,1-.711,0l-15.82-9.134Z" transform="translate(-86.436 -89.631)" fill="#b9dff9"/>
            <path id="Path_10806" data-name="Path 10806" d="M222.721,199.472l2.534,1.463c.15.087.131.238-.042.337l-1.1.634a.65.65,0,0,1-.584.024L221,200.467c-.15-.086-.131-.237.042-.337l1.1-.634a.65.65,0,0,1,.584-.024" transform="translate(-128.092 -114.99)" fill="#b9dff9"/>
            <path id="Path_10807" data-name="Path 10807" d="M214.551,194.755l2.534,1.463c.15.087.131.238-.042.337l-1.1.634a.65.65,0,0,1-.584.024l-2.534-1.463c-.15-.086-.131-.237.042-.337l1.1-.634a.65.65,0,0,1,.584-.024" transform="translate(-123.496 -112.335)" fill="#b9dff9"/>
            <path id="Path_10808" data-name="Path 10808" d="M206.448,190.077l2.534,1.463c.15.087.131.238-.042.337l-1.1.634a.65.65,0,0,1-.584.024l-2.534-1.463c-.15-.086-.131-.237.042-.337l1.1-.634a.65.65,0,0,1,.584-.024" transform="translate(-118.937 -109.702)" fill="#b9dff9"/>
            <path id="Path_10809" data-name="Path 10809" d="M219.025,192.172l2.534,1.463c.15.087.131.238-.042.337l-1.1.634a.65.65,0,0,1-.584.024l-2.534-1.463c-.15-.086-.131-.237.042-.337l1.1-.634a.65.65,0,0,1,.584-.024" transform="translate(-126.013 -110.881)" fill="#b9dff9"/>
            <path id="Path_10810" data-name="Path 10810" d="M237.112,64.327,214.261,51.134l.294-1.486,22.852,13.194Z" transform="translate(-124.232 -30.686)" fill="#5793ce"/>
            <path id="Path_10811" data-name="Path 10811" d="M227.251,75.312,211.3,66.1l.294-1.486,15.952,9.209Z" transform="translate(-122.619 -39.113)" fill="#5793ce"/>
            <path id="Path_10812" data-name="Path 10812" d="M226.58,66.586l-13.8-7.968.294-1.486,13.8,7.968Z" transform="translate(-123.466 -34.905)" fill="#fff"/>
            <path id="Path_10813" data-name="Path 10813" d="M256.468,83.842l-6.9-3.984.294-1.486,6.9,3.984Z" transform="translate(-144.205 -46.864)" fill="#ff2c9c"/>
            <path id="Path_10816" data-name="Path 10816" d="M196.458,41.15l-7.129-4.116.3-1.535,7.129,4.116Z" transform="translate(-110.317 -22.849)" fill="#d4ecff"/>
            <path id="Path_10817" data-name="Path 10817" d="M194.994,48.655l-7.129-4.116.3-1.535L195.3,47.12Z" transform="translate(-109.494 -27.1)" fill="#fff"/>
            <path id="Path_10844" data-name="Path 10844" d="M219.888,238.276l0,1.206c0,.008,0,.016,0,.024a.771.771,0,0,0,.036-.223l0-1.206c0-.034.006-.07.009-.105a1.343,1.343,0,0,0-.041.3" transform="translate(-127.547 -136.644)" fill="#fff"/>
            <path id="Path_10846" data-name="Path 10846" d="M5.968,147.91,0,144.465l5.968-3.445,5.968,3.445Z" transform="translate(0 -65.286)" fill="#666" opacity="0.16"/>
            <path id="Path_10949" data-name="Path 10949" d="M17.681,155.213,0,144.465l5.968-3.445,17.681,10.749Z" transform="translate(17.159 -45.901)" fill="#666" opacity="0.16"/>
            <path id="Path_10847" data-name="Path 10847" d="M19.731,130.95,13.763,134.4V127.5l5.968-3.445Z" transform="translate(-7.795 -55.723)" fill="#d3008d"/>
            <path id="Path_10848" data-name="Path 10848" d="M5.968,123,0,119.559l5.968-3.445,5.968,3.445Z" transform="translate(0 -51.274)" fill="#ff2c9c"/>
            <path id="Path_10849" data-name="Path 10849" d="M5.968,134.4,0,130.95v-6.891L5.968,127.5Z" transform="translate(0 -55.723)" fill="#ff2c9c"/>
            <path id="Path_10850" data-name="Path 10850" d="M320.154,149.8l-6.647-3.838,6.647-3.837,6.647,3.837Z" transform="translate(-188.338 -48.655)" fill="#666" opacity="0.16"/>
            <path id="Path_10851" data-name="Path 10851" d="M335.484,130.912l-6.647,3.838v-7.675l6.647-3.838Z" transform="translate(-197.021 -37.956)" fill="#173d7a"/>
            <path id="Path_10852" data-name="Path 10852" d="M320.154,122.062l-6.647-3.838,6.647-3.837,6.647,3.837Z" transform="translate(-188.338 -33.12)" fill="#d4ecff"/>
            <path id="Path_10853" data-name="Path 10853" d="M320.154,134.75l-6.647-3.838v-7.675l6.647,3.838Z" transform="translate(-188.338 -37.956)" fill="#5793ce"/>
            <path id="Path_10863" data-name="Path 10863" d="M263.423,95.257a.707.707,0,0,1-1.019.314.887.887,0,0,1-.365-1.113.707.707,0,0,1,1.019-.314.886.886,0,0,1,.365,1.113" transform="translate(-151.22 -55.691)" fill="#ff2c9c"/>
            <path id="Path_10864" data-name="Path 10864" d="M269.053,98.508a.707.707,0,0,1-1.019.314.887.887,0,0,1-.365-1.113.707.707,0,0,1,1.019-.314.886.886,0,0,1,.365,1.113" transform="translate(-154.187 -57.521)" fill="#fff"/>
            <path id="Path_10865" data-name="Path 10865" d="M274.682,101.758a.708.708,0,0,1-1.019.314.887.887,0,0,1-.365-1.113.707.707,0,0,1,1.019-.314.886.886,0,0,1,.365,1.113" transform="translate(-157.375 -59.35)" fill="#d4ecff"/>
            <path id="Path_10866" data-name="Path 10866" d="M280.311,105.008a.708.708,0,0,1-1.019.314.887.887,0,0,1-.365-1.113.707.707,0,0,1,1.019-.314.887.887,0,0,1,.365,1.113" transform="translate(-160.564 -61.179)" fill="#ff2c9c"/>
          </g>
        </g>
        <g id="Group_3764" data-name="Group 3764" transform="translate(18.467 78.981)">
          <g id="Group_3763" data-name="Group 3763" clip-path="url(#clip-path-2)">
            <path id="Path_7439" data-name="Path 7439" d="M21.826,10.343,4.2.165A.9.9,0,0,0,3.286.092V.08l-1.71.988,1.2.439V14.345A3.4,3.4,0,0,0,4.2,17.056l16.85,9.728V28.29l1.727-.995-.009,0a1.257,1.257,0,0,0,.479-1.131V13.053a3.4,3.4,0,0,0-1.419-2.71" transform="translate(-1.037 0)" fill="#173d7a"/>
            <path id="Path_7440" data-name="Path 7440" d="M19.047,30.156,1.419,19.978A3.4,3.4,0,0,1,0,17.268V4.16C0,3.115.635,2.635,1.419,3.088L19.047,13.266a3.4,3.4,0,0,1,1.419,2.71V29.084c0,1.044-.635,1.525-1.419,1.072" transform="translate(0 -1.919)" fill="#5793ce"/>
            <path id="Path_7441" data-name="Path 7441" d="M20.979,12.683,3.35,2.505a.844.844,0,0,0-1.069.043,1.059,1.059,0,0,1,.638.158L20.548,12.885a3.4,3.4,0,0,1,1.419,2.71V28.7a1.4,1.4,0,0,1-.349,1.028c.461-.046.781-.493.781-1.23V15.393a3.4,3.4,0,0,0-1.418-2.71" transform="translate(-1.5 -1.538)" fill="#fff"/>
            <path id="Path_7442" data-name="Path 7442" d="M16.9,35.3c0,.758-.533,1.066-1.19.687a2.631,2.631,0,0,1-1.189-2.06c0-.759.533-1.066,1.189-.687A2.629,2.629,0,0,1,16.9,35.3" transform="translate(-9.549 -21.756)" fill="#fff"/>
            <path id="Path_7443" data-name="Path 7443" d="M27.425,41.377c0,.758-.533,1.066-1.19.687A2.63,2.63,0,0,1,25.046,40c0-.759.533-1.066,1.189-.687a2.629,2.629,0,0,1,1.19,2.06" transform="translate(-16.475 -25.755)" fill="#fff"/>
            <path id="Path_7444" data-name="Path 7444" d="M37.954,47.456c0,.758-.533,1.066-1.19.687a2.63,2.63,0,0,1-1.189-2.06c0-.759.533-1.066,1.189-.687a2.629,2.629,0,0,1,1.19,2.06" transform="translate(-23.4 -29.753)" fill="#fff"/>
          </g>
        </g>
      </g>
      <g id="Group_4177" data-name="Group 4177" transform="translate(356.495 359.394)">
        <g id="Group_4176" data-name="Group 4176" clip-path="url(#clip-path-3)">
          <path id="Path_11078" data-name="Path 11078" d="M68.575,68.383,27.057,44.412,0,62.847,39.233,85.5a2.562,2.562,0,0,0,2.561,0L68.575,70.036a.954.954,0,0,0,0-1.653" transform="translate(0 -30.44)" fill="#666" opacity="0.16"/>
          <path id="Path_11079" data-name="Path 11079" d="M54.806,39.829c0-1.811-1.274-2.549-2.843-1.645L25.285,53.554a1.726,1.726,0,0,0-.782,1.352c0,.5.349.7.781.452l26.677-15.37c.708-.408,1.283-.075,1.283.742l0,2.983c.518-.032,1.037-.033,1.562-.024Z" transform="translate(-16.795 -25.907)" fill="#ff2c9c"/>
          <path id="Path_11080" data-name="Path 11080" d="M25.252,73.547l26.677-9.721A6.3,6.3,0,0,0,54.778,58.9l0-2.387c-.525-.009-1.044-.009-1.562.024l0,3.264a2.839,2.839,0,0,1-1.285,2.221L25.253,71.744a1.726,1.726,0,0,0-.782,1.352c0,.5.349.7.781.451" transform="translate(-16.773 -38.731)" fill="#d3008d"/>
          <path id="Path_11081" data-name="Path 11081" d="M25.113,104.844l32.452,18.778L85.04,107.236l2.18-3.253-.226,1.153-.586-3.018-51,1.945-8.986-.579Z" transform="translate(-17.213 -69.992)" fill="#d3008d"/>
          <path id="Path_11082" data-name="Path 11082" d="M28.515,92.77l-.009,3.995L59.871,114.91l.847-3.807Z" transform="translate(-19.538 -63.585)" fill="#e573b5"/>
          <path id="Path_11083" data-name="Path 11083" d="M86.881,57.2,54.481,38.45,25.269,55.438l-.06.417L57.657,74.628Z" transform="translate(-17.278 -26.354)" fill="#ff2c9c"/>
          <path id="Path_11084" data-name="Path 11084" d="M147.122,110.924l7.618-4.519a2.862,2.862,0,0,0,1.146-2.125l.006-.6a.826.826,0,0,0-.514-.887l-15,8.342-12.212,6.6.011,4.039Z" transform="translate(-87.848 -70.456)" fill="#fff"/>
          <path id="Path_11085" data-name="Path 11085" d="M58.21,109.254,26.015,90.628l-.683-.395-.624-.361a1.577,1.577,0,0,0-.207.726.551.551,0,0,0,.222.5v0l.005,0,0,0,32.44,18.768Z" transform="translate(-16.794 -61.6)" fill="#d3008d"/>
          <path id="Path_11086" data-name="Path 11086" d="M126.982,169.526l.4.234.075-.129-.252-.2Z" transform="translate(-87.034 -116.13)" fill="#fff"/>
          <path id="Path_11087" data-name="Path 11087" d="M127.016,152.674l.415.24-.1-.227Z" transform="translate(-87.057 -104.644)" fill="#fff"/>
          <path id="Path_11088" data-name="Path 11088" d="M128.405,113.227l26.677-15.37c1.569-.9,2.845-.166,2.843,1.645l-.006.6a6.3,6.3,0,0,1-2.849,4.925L128.394,120.4c-.432.249-.781.047-.781-.451a1.726,1.726,0,0,1,.782-1.352l26.677-15.37A2.84,2.84,0,0,0,156.358,101l.006-.6c0-.817-.574-1.15-1.283-.742L128.4,115.031c-.431.249-.781.046-.78-.452a1.726,1.726,0,0,1,.782-1.352" transform="translate(-87.467 -66.807)" fill="#ff2c9c"/>
          <path id="Path_11089" data-name="Path 11089" d="M92.363,82.785,106.226,74.8l12.023,6.956-13.863,7.987Z" transform="translate(-63.307 -51.267)" fill="#fff"/>
          <path id="Path_11090" data-name="Path 11090" d="M126.682,124.352a1.726,1.726,0,0,1,.782-1.352l26.677-15.37a2.84,2.84,0,0,0,1.285-2.221l.006-.6c0-.535-.247-.86-.616-.908a1.074,1.074,0,0,1,.188.661l-.005.6a2.841,2.841,0,0,1-1.285,2.221l-26.677,15.37a1.727,1.727,0,0,0-.782,1.352c0,.377.2.584.486.554a.753.753,0,0,1-.058-.306" transform="translate(-86.535 -71.215)" fill="#fff"/>
          <path id="Path_11091" data-name="Path 11091" d="M126.713,114.041a1.726,1.726,0,0,1,.782-1.352l26.677-15.37a2.152,2.152,0,0,1,1.785-.3,1.87,1.87,0,0,0-2.212.051l-26.677,15.37a1.726,1.726,0,0,0-.782,1.352c0,.377.2.584.486.554a.756.756,0,0,1-.058-.307" transform="translate(-86.557 -66.27)" fill="#fff"/>
          <path id="Path_11092" data-name="Path 11092" d="M51.412,2.031c0-1.811-1.274-2.549-2.843-1.645L21.891,15.756a1.726,1.726,0,0,0-.782,1.352c0,.5.349.7.781.452L48.567,2.189c.708-.408,1.283-.075,1.282.742l0,2.983c.518-.032,1.037-.033,1.562-.024Z" transform="translate(-14.468 0)" fill="#d4ecff"/>
          <path id="Path_11093" data-name="Path 11093" d="M21.858,35.749l26.677-9.721A6.3,6.3,0,0,0,51.385,21.1l0-2.387c-.525-.009-1.044-.009-1.562.024l0,3.264a2.839,2.839,0,0,1-1.285,2.221L21.86,33.946a1.727,1.727,0,0,0-.782,1.352c0,.5.349.7.781.451" transform="translate(-14.447 -12.824)" fill="#5793ce"/>
          <path id="Path_11094" data-name="Path 11094" d="M21.72,67.046,54.171,85.824,81.647,69.438l2.18-3.253L83.6,67.337l-.586-3.018-51,1.945-8.986-.579Z" transform="translate(-14.887 -44.085)" fill="#5793ce"/>
          <path id="Path_11095" data-name="Path 11095" d="M25.122,54.972l-.009,3.995L56.477,77.112l.847-3.807Z" transform="translate(-17.213 -37.678)" fill="#86b8e0"/>
          <path id="Path_11096" data-name="Path 11096" d="M83.488,19.4,51.088.652,21.876,17.64l-.06.417L54.263,36.83Z" transform="translate(-14.952 -0.447)" fill="#d4ecff"/>
          <path id="Path_11097" data-name="Path 11097" d="M143.729,73.126l7.618-4.519a2.862,2.862,0,0,0,1.146-2.124l.006-.6a.827.827,0,0,0-.514-.887l-15,8.342-12.212,6.6.011,4.039Z" transform="translate(-85.522 -44.549)" fill="#fff"/>
          <path id="Path_11098" data-name="Path 11098" d="M54.817,71.456,22.622,52.83l-.682-.395-.623-.361a1.568,1.568,0,0,0-.208.726.551.551,0,0,0,.222.5v0l.005,0,0,0,32.44,18.768Z" transform="translate(-14.468 -35.692)" fill="#5793ce"/>
          <path id="Path_11099" data-name="Path 11099" d="M123.589,131.728l.4.234.075-.129-.252-.2Z" transform="translate(-84.709 -90.223)" fill="#fff"/>
          <path id="Path_11100" data-name="Path 11100" d="M123.622,114.876l.415.24-.1-.227Z" transform="translate(-84.732 -78.737)" fill="#fff"/>
          <path id="Path_11101" data-name="Path 11101" d="M125.011,75.429l26.677-15.37c1.569-.9,2.845-.166,2.843,1.645l-.006.6a6.3,6.3,0,0,1-2.849,4.925L125,82.6c-.432.249-.781.047-.781-.451A1.726,1.726,0,0,1,125,80.794l26.677-15.37a2.84,2.84,0,0,0,1.285-2.221l.005-.6c0-.817-.574-1.15-1.282-.742L125.01,77.232c-.432.249-.781.046-.781-.452a1.726,1.726,0,0,1,.782-1.352" transform="translate(-85.141 -40.9)" fill="#d4ecff"/>
          <path id="Path_11103" data-name="Path 11103" d="M123.289,86.554a1.726,1.726,0,0,1,.782-1.352l26.677-15.37a2.84,2.84,0,0,0,1.285-2.221l.006-.6c0-.535-.247-.86-.616-.908a1.074,1.074,0,0,1,.188.661l-.005.6a2.841,2.841,0,0,1-1.285,2.221l-26.677,15.37a1.727,1.727,0,0,0-.782,1.352c0,.377.2.584.486.554a.749.749,0,0,1-.058-.307" transform="translate(-84.21 -45.308)" fill="#fff"/>
          <path id="Path_11104" data-name="Path 11104" d="M123.32,76.244a1.727,1.727,0,0,1,.782-1.352l26.677-15.37a2.152,2.152,0,0,1,1.785-.3,1.871,1.871,0,0,0-2.213.051l-26.677,15.37A1.725,1.725,0,0,0,122.893,76c0,.377.2.584.485.554a.754.754,0,0,1-.058-.307" transform="translate(-84.232 -40.363)" fill="#fff"/>
        </g>
      </g>
      <g id="Group_4174" data-name="Group 4174" transform="translate(365.781 334.642)">
        <g id="Group_4173" data-name="Group 4173" transform="translate(0 0)">
          <g id="Group_4175" data-name="Group 4175" transform="translate(0 0)">
            <path id="Path_11007" data-name="Path 11007" d="M111.81,175.983,93.778,165.615c-1.214-.7-1.062-1.925.34-2.735l17.5-10.1a5.265,5.265,0,0,1,4.737-.2l18.032,10.368c1.214.7,1.062,1.925-.34,2.735l-17.5,10.1a5.264,5.264,0,0,1-4.737.2" transform="translate(-87.951 -117.916)" fill="#666" opacity="0.16"/>
            <path id="Path_11008" data-name="Path 11008" d="M188.459,100.522l-3.117-1.8,11.494-6.636a.6.6,0,0,0,0-1.137L185.094,84.17a2.179,2.179,0,0,0-1.969,0l-11.494,6.636-3.118-1.8,11.494-6.636a9.08,9.08,0,0,1,8.2,0l11.742,6.779c2.262,1.306,2.262,3.431,0,4.737Z" transform="translate(-143.46 -65.961)" fill="#5793ce"/>
            <path id="Path_11009" data-name="Path 11009" d="M125.8,110.469a5.42,5.42,0,0,0-2.263-4.324L102.711,94.121A1.453,1.453,0,0,0,101.244,94h0L76.378,108.444l24.046,18.119,24.5-14.218a1.136,1.136,0,0,0,.216-.126h0a2.127,2.127,0,0,0,.662-1.75" transform="translate(-75.769 -75.116)" fill="#b5d2ef"/>
            <path id="Path_11010" data-name="Path 11010" d="M158.262,165.914l24.5-14.218a1.141,1.141,0,0,0,.216-.125h0a2.128,2.128,0,0,0,.662-1.751,5.552,5.552,0,0,0-.61-2.408L155.1,163.533Z" transform="translate(-133.608 -114.466)" fill="#173d7a"/>
            <path id="Path_11011" data-name="Path 11011" d="M97.172,166.148,76.346,154.124a5.42,5.42,0,0,1-2.263-4.324c0-1.667,1.013-2.433,2.263-1.711l20.826,12.024a5.42,5.42,0,0,1,2.263,4.324c0,1.667-1.013,2.433-2.263,1.711" transform="translate(-74.083 -114.765)" fill="#5793ce"/>
            <path id="Path_11012" data-name="Path 11012" d="M141.168,194.144l-2.5-1.444a1.08,1.08,0,0,1-.451-.862c0-.332.2-.485.451-.341l2.5,1.444a1.08,1.08,0,0,1,.451.862c0,.332-.2.485-.451.341" transform="translate(-121.199 -146.816)" fill="#fff"/>
            <path id="Path_11028" data-name="Path 11028" d="M134.872,169.014l-4.435,2.86-2.159-.35,5.273-2.549Z" transform="translate(-113.9 -130.309)" fill="#5793ce"/>
            <path id="Path_11029" data-name="Path 11029" d="M121.835,222.965a1.747,1.747,0,0,0-2.062.315,9.82,9.82,0,0,0-1.94,4.754c-.035,1.53,1.211,1.427,1.951,1.064a13.712,13.712,0,0,0,3.034-4.114,2.134,2.134,0,0,0-.362-1.609c-.208-.163-.621-.41-.621-.41" transform="translate(-106.225 -169.819)" fill="#173d7a"/>
            <path id="Path_11030" data-name="Path 11030" d="M127.275,221.545l.059,1.323a.751.751,0,0,1-.374.688,1.473,1.473,0,0,1-.986.153c-.962-.154-1.048-.43-1.117-1.753s2.417-.412,2.417-.412" transform="translate(-111.386 -168.707)" fill="#5793ce"/>
            <path id="Path_11031" data-name="Path 11031" d="M104.212,213.374a1.746,1.746,0,0,0-2.062.315,9.818,9.818,0,0,0-1.941,4.754c-.035,1.53,1.211,1.427,1.951,1.065a13.713,13.713,0,0,0,3.034-4.114,2.134,2.134,0,0,0-.362-1.609c-.208-.163-.621-.41-.621-.41" transform="translate(-93.277 -162.773)" fill="#173d7a"/>
            <path id="Path_11032" data-name="Path 11032" d="M109.651,211.954l.059,1.323a.75.75,0,0,1-.374.688,1.473,1.473,0,0,1-.985.153c-.962-.155-1.048-.43-1.117-1.753s2.417-.412,2.417-.412" transform="translate(-98.438 -161.661)" fill="#5793ce"/>
            <path id="Path_11033" data-name="Path 11033" d="M115.473,114.249c-.378-6.151-6.662.9-6.662.9l-4.3,4.215-3.873,4.255a3.818,3.818,0,0,0-.962,3.067l1.567,11.929a1.173,1.173,0,0,0,1.176,1.019,4,4,0,0,0,.58-.051,1.457,1.457,0,0,0,1.294-1.547l-.287-11.158,8.133-4.9s3.712-1.581,3.334-7.732" transform="translate(-92.861 -88.253)" fill="#d4ecff"/>
            <path id="Path_11034" data-name="Path 11034" d="M119.2,159.72l-1.157-.425c-.027,0-1.967,1.877-1.951,2.534l.871.279,2.186-2.122Z" transform="translate(-104.943 -123.197)" fill="#5793ce"/>
            <path id="Path_11035" data-name="Path 11035" d="M147.963,153.815s4.833-2.76,5.412-3.917c.227-.453.579-.927-.831-1.611l-6.446,4.595.28,1.582Z" transform="translate(-126.991 -115.11)" fill="#5793ce"/>
            <path id="Path_11036" data-name="Path 11036" d="M133.1,123.2c-.4-6.15-6.662.9-6.662.9l-4.3,4.216-3.873,4.255a3.818,3.818,0,0,0-.962,3.067l1.567,11.929a1.173,1.173,0,0,0,1.176,1.019,4,4,0,0,0,.58-.051,1.457,1.457,0,0,0,1.294-1.546l-.287-11.158,8.133-4.9s3.7-2.11,3.334-7.732" transform="translate(-105.81 -94.829)" fill="#d4ecff"/>
            <path id="Path_11037" data-name="Path 11037" d="M137.47,53.731c4.764,1.975,4.669,4.791,4.669,4.791a159.733,159.733,0,0,0-.615,17.219c.133,2.882-15.314,3.1-13.011-4.587,2.716-9.067,1.7-16.407,2.97-17.514s4.755-.42,5.987.091" transform="translate(-113.9 -45.137)" fill="#5793ce"/>
            <path id="Path_11038" data-name="Path 11038" d="M155.4,58.2c-.249.967-1.517,1.477-2.831,1.138s-2.178-1.4-1.928-2.364,1.516-1.477,2.831-1.139,2.177,1.4,1.928,2.364" transform="translate(-130.299 -47.111)" fill="#ffc2b0"/>
            <path id="Path_11039" data-name="Path 11039" d="M152.742,59.043a3.459,3.459,0,0,1-.861-.111,3.17,3.17,0,0,1-1.67-1.023,1.821,1.821,0,0,1-.422-1.619c.28-1.088,1.675-1.673,3.108-1.3a3.168,3.168,0,0,1,1.67,1.023,1.82,1.82,0,0,1,.422,1.619,2.177,2.177,0,0,1-2.247,1.413m-.717-3.712a1.724,1.724,0,0,0-1.8,1.073,1.38,1.38,0,0,0,.334,1.217,2.714,2.714,0,0,0,1.431.87c1.19.305,2.336-.131,2.553-.975a1.38,1.38,0,0,0-.334-1.217,2.712,2.712,0,0,0-1.431-.87,3.051,3.051,0,0,0-.758-.1" transform="translate(-129.666 -46.482)" fill="#fff"/>
            <path id="Path_11040" data-name="Path 11040" d="M155.606,52.188a11.745,11.745,0,0,1-.041,1.7c-.026.475,1.636.918,2.065.488s.258-.876.361-2.492-2.385.3-2.385.3" transform="translate(-133.946 -43.809)" fill="#ffc2b0"/>
            <path id="Path_11041" data-name="Path 11041" d="M157.992,53.678a3.346,3.346,0,0,1-2.427,2.072l.031-1.361Z" transform="translate(-133.947 -45.601)" fill="#ea9c92"/>
            <path id="Path_11042" data-name="Path 11042" d="M149.539,31.721a3.667,3.667,0,1,1-4.468-2.632,3.667,3.667,0,0,1,4.468,2.632" transform="translate(-124.216 -27.449)" fill="#ffc2b0"/>
            <path id="Path_11043" data-name="Path 11043" d="M146.759,40.85a11.35,11.35,0,0,1-3.417.875c-1.4.01-1.09-1.161-1.09-1.161l4.15-.6Z" transform="translate(-124.145 -35.526)" fill="#ea9c92"/>
            <path id="Path_11044" data-name="Path 11044" d="M138.512,28.787a6.551,6.551,0,0,1,3.3-.435,1.616,1.616,0,0,1,.932.554.55.55,0,0,0,.282.2c.274.062.721-1.073,1.253-1.1s.887.35.451,1.049-.289,1.479-.088,1.591,2.329-1.518.452-5.236-6.645-1.716-7.387-.962c0,0-.781.681-1.416.075,0,0-.712,5.335,2.22,4.259" transform="translate(-119.731 -23.236)" fill="#173d7a"/>
            <path id="Path_11045" data-name="Path 11045" d="M153.547,97.719v2.79a1.135,1.135,0,0,1-.371.84l-5.731,5.225.651,1,7.568-5.489a1.538,1.538,0,0,0,.627-1.084l.512-4.865Z" transform="translate(-127.981 -76.791)" fill="#ffc2b0"/>
            <path id="Path_11046" data-name="Path 11046" d="M171.555,68.428s1.739,2.615,2.386,9.5c0,0-2.97.96-4.655.415s2.269-9.913,2.269-9.913" transform="translate(-143.721 -56.438)" fill="#5793ce"/>
            <path id="Path_11047" data-name="Path 11047" d="M167.255,80.889a48.444,48.444,0,0,0-.719,5.355,1.093,1.093,0,0,0,.719,1.055Z" transform="translate(-142.007 -65.593)" fill="#396caa"/>
            <path id="Path_11048" data-name="Path 11048" d="M116.5,135.346l-1.267-.167-8.177-4.721a1.137,1.137,0,0,0-1.023.042l-5.794,3.344-.766-.1v.763h0a.3.3,0,0,0,.176.268l9.266,5.35a1.137,1.137,0,0,0,1.023-.042l6.31-3.642a.413.413,0,0,0,.25-.344Z" transform="translate(-92.736 -101.936)" fill="#173d7a"/>
            <path id="Path_11049" data-name="Path 11049" d="M110.354,136.992l-.581-.335h-6.387l-3.148,1.817-.766-.1v.763h0a.3.3,0,0,0,.176.268l9.266,5.35a.959.959,0,0,0,.528.1Z" transform="translate(-92.736 -106.565)" fill="#396caa"/>
            <path id="Path_11050" data-name="Path 11050" d="M99.812,143.167l-.34-.045v.762h0a.3.3,0,0,0,.176.269l.163.094Z" transform="translate(-92.736 -111.315)" fill="#5793ce"/>
            <path id="Path_11051" data-name="Path 11051" d="M135.415,163.6a1.187,1.187,0,0,0,.869-.054v-1.3h-.869Z" transform="translate(-119.143 -125.364)" fill="#274f89"/>
            <path id="Path_11052" data-name="Path 11052" d="M108.914,137.366l-9.266-5.35c-.262-.151-.229-.416.073-.59l6.31-3.642a1.136,1.136,0,0,1,1.022-.042l9.266,5.35c.262.151.229.415-.073.59l-6.31,3.642a1.137,1.137,0,0,1-1.023.042" transform="translate(-92.735 -99.94)" fill="#fff"/>
            <path id="Path_11053" data-name="Path 11053" d="M112.729,141.969l-7.7-4.448c-.218-.126-.191-.346.061-.491l3.381-1.9a.945.945,0,0,1,.85-.035l7.705,4.448c.218.126.19.346-.061.491l-3.381,1.9a.945.945,0,0,1-.85.035" transform="translate(-96.707 -105.354)" fill="#d4ecff"/>
            <path id="Path_11054" data-name="Path 11054" d="M125.137,126.633l-.1.639a4.727,4.727,0,0,0,.042,1.639l.114.564a.792.792,0,0,0,.635.622.437.437,0,0,0,.513-.382l.153-1.367s.35.458.519.458-.189-1.369-.571-2.144-1.308-.031-1.308-.031" transform="translate(-111.483 -98.964)" fill="#ffc2b0"/>
            <path id="Path_11055" data-name="Path 11055" d="M127.02,83.879l-.994,1.968a3.857,3.857,0,0,0-.407,1.494l-.432,6.731-1.308-.031-.594-7.559a2.764,2.764,0,0,1,.034-.7L124,81.95Z" transform="translate(-110.225 -66.372)" fill="#ffc2b0"/>
            <path id="Path_11056" data-name="Path 11056" d="M106.51,126.781l-.777-1.014-8.171-4.731a1.136,1.136,0,0,1-.474-.907l.007-6.69-.47-.613.441-.255h0a.3.3,0,0,1,.32.019l9.26,5.361a1.138,1.138,0,0,1,.474.907l-.008,7.285a.413.413,0,0,1-.173.388Z" transform="translate(-90.645 -88.841)" fill="#173d7a"/>
            <path id="Path_11057" data-name="Path 11057" d="M100.86,122.945l-.58-.336-3.187-5.535,0-3.635-.47-.613.441-.256h0a.3.3,0,0,1,.32.019l9.26,5.361a.958.958,0,0,1,.349.408Z" transform="translate(-90.645 -88.841)" fill="#396caa"/>
            <path id="Path_11058" data-name="Path 11058" d="M96.835,113.1l-.209-.272.441-.255h0a.3.3,0,0,1,.32.018l.163.094Z" transform="translate(-90.645 -88.841)" fill="#5793ce"/>
            <path id="Path_11059" data-name="Path 11059" d="M132.084,133.177a1.187,1.187,0,0,1,.387.78l-.9.522-.434-.753Z" transform="translate(-115.996 -104.008)" fill="#274f89"/>
            <path id="Path_11060" data-name="Path 11060" d="M105.76,118.913l-9.26-5.361c-.262-.152-.475.009-.475.358l-.008,7.285a1.136,1.136,0,0,0,.474.907l9.26,5.361c.262.151.475-.009.475-.358l.008-7.285a1.137,1.137,0,0,0-.474-.907" transform="translate(-90.198 -89.548)" fill="#5793ce"/>
            <path id="Path_11061" data-name="Path 11061" d="M141.445,136.487l-.148.307a2.059,2.059,0,0,1-.774.858l-.92.567a.915.915,0,0,1-.939.022l-.031-.019a.553.553,0,0,1-.078-.85l.961-.988s-.54.414-.691.247c-.111-.122.524-.718,1.011-.738a1.924,1.924,0,0,0,.959-.4Z" transform="translate(-121.33 -105.709)" fill="#ffc2b0"/>
            <path id="Path_11062" data-name="Path 11062" d="M127.02,55.229a30.266,30.266,0,0,0-4.945,7.351,7.194,7.194,0,0,0,4.154,3.023c2.949.852.791-10.374.791-10.374" transform="translate(-109.342 -46.741)" fill="#5793ce"/>
            <path id="Path_11063" data-name="Path 11063" d="M133.088,78.195l.571-5.517-1.346,5.169a7.717,7.717,0,0,0,.775.348" transform="translate(-116.864 -59.56)" fill="#396caa"/>
            <path id="Path_11064" data-name="Path 11064" d="M148.039,51.593l-.947-.26a2.285,2.285,0,0,0,1.112.892c.66.181.763-.377.763-.377Z" transform="translate(-127.722 -43.878)" fill="#fff"/>
          </g>
        </g>
      </g>
      <path id="Path_7179" data-name="Path 7179" d="M333.271,1.921a5.649,5.649,0,0,0-1.443,1.24C331.761.317,329.72-.82,327.207.632a8.409,8.409,0,0,0-2.221,1.938c-1.119-1.956-3.437-2.409-6.123-.859a15.119,15.119,0,0,0-6.839,11.846,8.091,8.091,0,0,0,.069,1.02,2.576,2.576,0,0,0-1.915.387,7.232,7.232,0,0,0-3.273,5.668c0,2.087,1.465,2.933,3.273,1.889L333.271,9.186a6.954,6.954,0,0,0,3.146-5.449c0-2.006-1.409-2.819-3.146-1.816" transform="translate(130.685 371.625)" fill="#cbdff1"/>
    </g>
  </g>
</svg>
