<svg id="ic-reset" xmlns="http://www.w3.org/2000/svg" width="35.6" height="35.6" viewBox="0 0 35.6 35.6">
  <path id="Path_93" data-name="Path 93" d="M0,0H35.6V35.6H0Z" fill="none"/>
  <path id="Path_94" data-name="Path 94" d="M15.165,5.187V1L9.584,6.583l5.581,5.581V7.978a8.38,8.38,0,0,1,8.374,8.374,8.194,8.194,0,0,1-.977,3.908L24.6,22.3A11.145,11.145,0,0,0,15.165,5.185Zm0,19.538a8.38,8.38,0,0,1-8.374-8.374,8.194,8.194,0,0,1,.977-3.908L5.731,10.406a11.145,11.145,0,0,0,9.434,17.112V31.7l5.583-5.587-5.583-5.579Z" transform="translate(2.635 1.448)" fill="#1d70b7"/>
</svg>
