<svg id="icon-reset" xmlns="http://www.w3.org/2000/svg" width="18" height="18" viewBox="0 0 18 18">
  <path id="Path_93" data-name="Path 93" d="M0,0H18V18H0Z" fill="none"/>
  <path id="Path_94" data-name="Path 94" d="M9.645,3.117V1L6.823,3.823,9.645,6.645V4.528a4.237,4.237,0,0,1,4.234,4.234,4.143,4.143,0,0,1-.494,1.976l1.03,1.03a5.635,5.635,0,0,0-4.77-8.652Zm0,9.879A4.237,4.237,0,0,1,5.411,8.762a4.143,4.143,0,0,1,.494-1.976l-1.03-1.03a5.635,5.635,0,0,0,4.77,8.652v2.117L12.468,13.7,9.645,10.879Z" transform="translate(-0.645 0.238)" fill="#fff"/>
</svg>
