<svg id="logo" xmlns="http://www.w3.org/2000/svg" xmlns:xlink="http://www.w3.org/1999/xlink" width="155" height="66.689" viewBox="0 0 155 66.689">
  <defs>
    <clipPath id="clip-path">
      <rect id="Rectangle_2595" data-name="Rectangle 2595" width="155" height="66.689" fill="none"/>
    </clipPath>
  </defs>
  <path id="Path_10800" data-name="Path 10800" d="M72.612,22.66V73.991h16.1v-50.8l-16.1-14.43Z" transform="translate(-60.536 -7.302)" fill="#003879"/>
  <rect id="Rectangle_2593" data-name="Rectangle 2593" width="10.8" height="14.143" fill="#003879"/>
  <path id="Path_10801" data-name="Path 10801" d="M73.861,0,89.68,14.143h11.526V0Z" transform="translate(-61.578 0)" fill="#003879"/>
  <g id="Group_3802" data-name="Group 3802">
    <g id="Group_3801" data-name="Group 3801" clip-path="url(#clip-path)">
      <path id="Path_10802" data-name="Path 10802" d="M298.531,0V66.469a25.805,25.805,0,0,1-10.657-4.477c-4.516-3.358-6.806-8.981-6.806-16.712V0Z" transform="translate(-234.208)" fill="#003879"/>
      <path id="Path_10803" data-name="Path 10803" d="M477.816,0V45.28c0,7.731-2.291,13.354-6.809,16.713a25.815,25.815,0,0,1-10.655,4.476V0Z" transform="translate(-383.601)" fill="#003879"/>
      <rect id="Rectangle_2594" data-name="Rectangle 2594" width="9.773" height="22.683" transform="translate(65.7 44.006)" fill="#003879"/>
      <path id="Path_10804" data-name="Path 10804" d="M615.016,13.971l7.939,27.053L612.924,78.331H596.3l17.838-64.36Z" transform="translate(-496.882 -11.642)" fill="#003879"/>
      <path id="Path_10805" data-name="Path 10805" d="M728.87,0l18.776,66.689H730.674l-12.7-43.53L711.223,0Z" transform="translate(-592.646)" fill="#003879"/>
    </g>
  </g>
</svg>
